<mxfile host="app.diagrams.net" agent="Mozilla/5.0 (Macintosh; Intel Mac OS X 10_15_7) AppleWebKit/605.1.15 (KHTML, like Gecko) Version/18.3.1 Safari/605.1.15" version="27.1.4">
  <diagram name="Page-1" id="vA7vCNaGowitRWH8Ycq-">
    <mxGraphModel dx="-821" dy="501" grid="1" gridSize="10" guides="1" tooltips="1" connect="1" arrows="1" fold="1" page="1" pageScale="1" pageWidth="827" pageHeight="1169" math="0" shadow="0">
      <root>
        <mxCell id="0" />
        <mxCell id="1" parent="0" />
        <mxCell id="olvuOu_hH_lNJqrxn-xl-3" value="" style="ellipse;whiteSpace=wrap;html=1;dashed=1;" parent="1" vertex="1">
          <mxGeometry x="4271.5" y="1360" width="75" height="50" as="geometry" />
        </mxCell>
        <mxCell id="-aTBkdRAjHbu4pJM6rxs-2" value="" style="rhombus;whiteSpace=wrap;html=1;" parent="1" vertex="1">
          <mxGeometry x="5196" y="1732.5" width="90" height="90" as="geometry" />
        </mxCell>
        <mxCell id="-aTBkdRAjHbu4pJM6rxs-1" value="" style="rounded=0;whiteSpace=wrap;html=1;" parent="1" vertex="1">
          <mxGeometry x="4970" y="1742.5" width="130" height="70" as="geometry" />
        </mxCell>
        <mxCell id="fGc8xeFr4oaS0azgFrXS-280" style="edgeStyle=orthogonalEdgeStyle;rounded=0;orthogonalLoop=1;jettySize=auto;html=1;entryX=0;entryY=0.5;entryDx=0;entryDy=0;endArrow=none;startFill=0;exitX=1;exitY=0.25;exitDx=0;exitDy=0;" parent="1" source="fGc8xeFr4oaS0azgFrXS-191" target="fGc8xeFr4oaS0azgFrXS-262" edge="1">
          <mxGeometry relative="1" as="geometry">
            <mxPoint x="3972" y="2220" as="sourcePoint" />
          </mxGeometry>
        </mxCell>
        <mxCell id="olvuOu_hH_lNJqrxn-xl-8" style="rounded=0;orthogonalLoop=1;jettySize=auto;html=1;entryX=0;entryY=0.25;entryDx=0;entryDy=0;endArrow=none;startFill=0;exitX=0.848;exitY=1.001;exitDx=0;exitDy=0;exitPerimeter=0;" parent="1" source="fGc8xeFr4oaS0azgFrXS-191" target="olvuOu_hH_lNJqrxn-xl-7" edge="1">
          <mxGeometry relative="1" as="geometry" />
        </mxCell>
        <mxCell id="fGc8xeFr4oaS0azgFrXS-191" value="" style="rounded=0;whiteSpace=wrap;html=1;" parent="1" vertex="1">
          <mxGeometry x="3831" y="2335" width="130" height="70" as="geometry" />
        </mxCell>
        <mxCell id="fGc8xeFr4oaS0azgFrXS-190" value="" style="rhombus;whiteSpace=wrap;html=1;" parent="1" vertex="1">
          <mxGeometry x="4156.5" y="2325" width="90" height="90" as="geometry" />
        </mxCell>
        <mxCell id="fGc8xeFr4oaS0azgFrXS-2" value="" style="rhombus;whiteSpace=wrap;html=1;" parent="1" vertex="1">
          <mxGeometry x="3630" y="2022.5" width="90" height="90" as="geometry" />
        </mxCell>
        <mxCell id="fGc8xeFr4oaS0azgFrXS-3" style="rounded=0;orthogonalLoop=1;jettySize=auto;html=1;entryX=0;entryY=0.5;entryDx=0;entryDy=0;endArrow=none;startFill=0;exitX=1;exitY=0;exitDx=0;exitDy=0;" parent="1" source="fGc8xeFr4oaS0azgFrXS-4" target="fGc8xeFr4oaS0azgFrXS-90" edge="1">
          <mxGeometry relative="1" as="geometry" />
        </mxCell>
        <mxCell id="fGc8xeFr4oaS0azgFrXS-4" value="" style="rounded=0;whiteSpace=wrap;html=1;" parent="1" vertex="1">
          <mxGeometry x="3831" y="2035" width="130" height="70" as="geometry" />
        </mxCell>
        <mxCell id="fGc8xeFr4oaS0azgFrXS-5" style="rounded=0;orthogonalLoop=1;jettySize=auto;html=1;entryX=1;entryY=0.5;entryDx=0;entryDy=0;endArrow=none;startFill=0;" parent="1" source="fGc8xeFr4oaS0azgFrXS-9" target="fGc8xeFr4oaS0azgFrXS-32" edge="1">
          <mxGeometry relative="1" as="geometry" />
        </mxCell>
        <mxCell id="fGc8xeFr4oaS0azgFrXS-6" style="rounded=0;orthogonalLoop=1;jettySize=auto;html=1;entryX=1;entryY=0.5;entryDx=0;entryDy=0;endArrow=none;startFill=0;" parent="1" source="fGc8xeFr4oaS0azgFrXS-9" target="fGc8xeFr4oaS0azgFrXS-33" edge="1">
          <mxGeometry relative="1" as="geometry" />
        </mxCell>
        <mxCell id="fGc8xeFr4oaS0azgFrXS-7" style="rounded=0;orthogonalLoop=1;jettySize=auto;html=1;endArrow=none;startFill=0;entryX=1;entryY=0.5;entryDx=0;entryDy=0;" parent="1" source="fGc8xeFr4oaS0azgFrXS-9" target="fGc8xeFr4oaS0azgFrXS-34" edge="1">
          <mxGeometry relative="1" as="geometry" />
        </mxCell>
        <mxCell id="fGc8xeFr4oaS0azgFrXS-9" value="Ciudadano" style="rounded=0;whiteSpace=wrap;html=1;" parent="1" vertex="1">
          <mxGeometry x="3020" y="1620" width="120" height="60" as="geometry" />
        </mxCell>
        <mxCell id="fGc8xeFr4oaS0azgFrXS-10" style="edgeStyle=orthogonalEdgeStyle;rounded=0;orthogonalLoop=1;jettySize=auto;html=1;entryX=0.5;entryY=0;entryDx=0;entryDy=0;endArrow=none;startFill=0;exitX=0.5;exitY=1;exitDx=0;exitDy=0;" parent="1" source="fGc8xeFr4oaS0azgFrXS-12" target="fGc8xeFr4oaS0azgFrXS-74" edge="1">
          <mxGeometry relative="1" as="geometry" />
        </mxCell>
        <mxCell id="fGc8xeFr4oaS0azgFrXS-11" value="" style="edgeStyle=orthogonalEdgeStyle;rounded=0;orthogonalLoop=1;jettySize=auto;html=1;entryX=0;entryY=0.25;entryDx=0;entryDy=0;endArrow=none;startFill=0;" parent="1" source="fGc8xeFr4oaS0azgFrXS-12" target="fGc8xeFr4oaS0azgFrXS-159" edge="1">
          <mxGeometry relative="1" as="geometry">
            <Array as="points">
              <mxPoint x="2840" y="2167.5" />
              <mxPoint x="2960" y="2167.5" />
            </Array>
          </mxGeometry>
        </mxCell>
        <mxCell id="fGc8xeFr4oaS0azgFrXS-12" value="Presidente" style="rounded=0;whiteSpace=wrap;html=1;" parent="1" vertex="1">
          <mxGeometry x="2780" y="2217.5" width="120" height="60" as="geometry" />
        </mxCell>
        <mxCell id="fGc8xeFr4oaS0azgFrXS-13" style="rounded=0;orthogonalLoop=1;jettySize=auto;html=1;endArrow=none;startFill=0;entryX=0;entryY=0.5;entryDx=0;entryDy=0;" parent="1" source="fGc8xeFr4oaS0azgFrXS-18" target="fGc8xeFr4oaS0azgFrXS-105" edge="1">
          <mxGeometry relative="1" as="geometry">
            <mxPoint x="4600" y="2285" as="targetPoint" />
            <Array as="points" />
          </mxGeometry>
        </mxCell>
        <mxCell id="fGc8xeFr4oaS0azgFrXS-14" style="rounded=0;orthogonalLoop=1;jettySize=auto;html=1;entryX=0;entryY=0.5;entryDx=0;entryDy=0;endArrow=none;startFill=0;" parent="1" source="fGc8xeFr4oaS0azgFrXS-18" target="fGc8xeFr4oaS0azgFrXS-106" edge="1">
          <mxGeometry relative="1" as="geometry" />
        </mxCell>
        <mxCell id="fGc8xeFr4oaS0azgFrXS-15" style="rounded=0;orthogonalLoop=1;jettySize=auto;html=1;entryX=0;entryY=0.5;entryDx=0;entryDy=0;endArrow=none;startFill=0;exitX=0.608;exitY=-0.001;exitDx=0;exitDy=0;exitPerimeter=0;" parent="1" source="fGc8xeFr4oaS0azgFrXS-18" target="fGc8xeFr4oaS0azgFrXS-107" edge="1">
          <mxGeometry relative="1" as="geometry" />
        </mxCell>
        <mxCell id="fGc8xeFr4oaS0azgFrXS-16" style="edgeStyle=orthogonalEdgeStyle;rounded=0;orthogonalLoop=1;jettySize=auto;html=1;entryX=1;entryY=0.5;entryDx=0;entryDy=0;endArrow=none;startFill=0;" parent="1" source="fGc8xeFr4oaS0azgFrXS-18" target="fGc8xeFr4oaS0azgFrXS-115" edge="1">
          <mxGeometry relative="1" as="geometry" />
        </mxCell>
        <mxCell id="fGc8xeFr4oaS0azgFrXS-18" value="ElecciÃ³n" style="rounded=0;whiteSpace=wrap;html=1;" parent="1" vertex="1">
          <mxGeometry x="4663" y="2340" width="120" height="60" as="geometry" />
        </mxCell>
        <mxCell id="fGc8xeFr4oaS0azgFrXS-20" style="edgeStyle=orthogonalEdgeStyle;rounded=0;orthogonalLoop=1;jettySize=auto;html=1;endArrow=none;startFill=0;exitX=0.5;exitY=1;exitDx=0;exitDy=0;" parent="1" source="fGc8xeFr4oaS0azgFrXS-22" target="fGc8xeFr4oaS0azgFrXS-76" edge="1">
          <mxGeometry relative="1" as="geometry" />
        </mxCell>
        <mxCell id="fGc8xeFr4oaS0azgFrXS-21" style="edgeStyle=orthogonalEdgeStyle;rounded=0;orthogonalLoop=1;jettySize=auto;html=1;endArrow=none;startFill=0;" parent="1" source="fGc8xeFr4oaS0azgFrXS-22" target="fGc8xeFr4oaS0azgFrXS-159" edge="1">
          <mxGeometry relative="1" as="geometry" />
        </mxCell>
        <mxCell id="fGc8xeFr4oaS0azgFrXS-22" value="Secretario" style="rounded=0;whiteSpace=wrap;html=1;" parent="1" vertex="1">
          <mxGeometry x="2920" y="2217.5" width="120" height="60" as="geometry" />
        </mxCell>
        <mxCell id="fGc8xeFr4oaS0azgFrXS-23" style="edgeStyle=orthogonalEdgeStyle;rounded=0;orthogonalLoop=1;jettySize=auto;html=1;entryX=0.5;entryY=0;entryDx=0;entryDy=0;endArrow=none;startFill=0;exitX=0.5;exitY=1;exitDx=0;exitDy=0;" parent="1" source="fGc8xeFr4oaS0azgFrXS-25" target="fGc8xeFr4oaS0azgFrXS-78" edge="1">
          <mxGeometry relative="1" as="geometry" />
        </mxCell>
        <mxCell id="fGc8xeFr4oaS0azgFrXS-25" value="Vocal" style="rounded=0;whiteSpace=wrap;html=1;" parent="1" vertex="1">
          <mxGeometry x="3060" y="2217.5" width="120" height="60" as="geometry" />
        </mxCell>
        <mxCell id="fGc8xeFr4oaS0azgFrXS-26" style="rounded=0;orthogonalLoop=1;jettySize=auto;html=1;entryX=0.5;entryY=0;entryDx=0;entryDy=0;endArrow=none;startFill=0;edgeStyle=orthogonalEdgeStyle;exitX=-0.001;exitY=0.861;exitDx=0;exitDy=0;exitPerimeter=0;" parent="1" source="fGc8xeFr4oaS0azgFrXS-27" target="fGc8xeFr4oaS0azgFrXS-31" edge="1">
          <mxGeometry relative="1" as="geometry">
            <Array as="points">
              <mxPoint x="3100" y="1768" />
              <mxPoint x="3100" y="1840" />
              <mxPoint x="3177" y="1840" />
            </Array>
          </mxGeometry>
        </mxCell>
        <mxCell id="fGc8xeFr4oaS0azgFrXS-303" style="edgeStyle=orthogonalEdgeStyle;rounded=0;orthogonalLoop=1;jettySize=auto;html=1;entryX=0.75;entryY=1;entryDx=0;entryDy=0;endArrow=none;startFill=0;exitX=0;exitY=0.25;exitDx=0;exitDy=0;" parent="1" source="fGc8xeFr4oaS0azgFrXS-27" target="fGc8xeFr4oaS0azgFrXS-148" edge="1">
          <mxGeometry relative="1" as="geometry">
            <Array as="points">
              <mxPoint x="3070" y="1768" />
              <mxPoint x="3070" y="1820" />
              <mxPoint x="2690" y="1820" />
              <mxPoint x="2690" y="2790" />
              <mxPoint x="5270" y="2790" />
              <mxPoint x="5270" y="2170" />
              <mxPoint x="5065" y="2170" />
            </Array>
          </mxGeometry>
        </mxCell>
        <mxCell id="fGc8xeFr4oaS0azgFrXS-304" style="edgeStyle=orthogonalEdgeStyle;rounded=0;orthogonalLoop=1;jettySize=auto;html=1;exitX=0.008;exitY=0.108;exitDx=0;exitDy=0;exitPerimeter=0;entryX=0.5;entryY=1;entryDx=0;entryDy=0;endArrow=none;startFill=0;" parent="1" source="fGc8xeFr4oaS0azgFrXS-27" edge="1">
          <mxGeometry relative="1" as="geometry">
            <mxPoint x="3080.57" y="1768.09" as="sourcePoint" />
            <mxPoint x="5361.89" y="2139.41" as="targetPoint" />
            <Array as="points">
              <mxPoint x="3060" y="1768" />
              <mxPoint x="3060" y="1800" />
              <mxPoint x="2671" y="1800" />
              <mxPoint x="2671" y="2822" />
              <mxPoint x="5362" y="2822" />
            </Array>
          </mxGeometry>
        </mxCell>
        <mxCell id="5WSkeiZae-1Y6LiHX-dT-2" style="edgeStyle=orthogonalEdgeStyle;rounded=0;orthogonalLoop=1;jettySize=auto;html=1;entryX=1;entryY=0.5;entryDx=0;entryDy=0;endArrow=none;startFill=0;" parent="1" source="fGc8xeFr4oaS0azgFrXS-27" target="5WSkeiZae-1Y6LiHX-dT-1" edge="1">
          <mxGeometry relative="1" as="geometry" />
        </mxCell>
        <mxCell id="fGc8xeFr4oaS0azgFrXS-27" value="" style="triangle;whiteSpace=wrap;html=1;rotation=-90;" parent="1" vertex="1">
          <mxGeometry x="3050" y="1697.5" width="60" height="80" as="geometry" />
        </mxCell>
        <mxCell id="fGc8xeFr4oaS0azgFrXS-28" style="edgeStyle=orthogonalEdgeStyle;rounded=0;orthogonalLoop=1;jettySize=auto;html=1;exitX=0;exitY=0.5;exitDx=0;exitDy=0;" parent="1" source="fGc8xeFr4oaS0azgFrXS-27" target="fGc8xeFr4oaS0azgFrXS-27" edge="1">
          <mxGeometry relative="1" as="geometry" />
        </mxCell>
        <mxCell id="fGc8xeFr4oaS0azgFrXS-29" style="edgeStyle=orthogonalEdgeStyle;rounded=0;orthogonalLoop=1;jettySize=auto;html=1;endArrow=none;startFill=0;" parent="1" source="fGc8xeFr4oaS0azgFrXS-31" target="fGc8xeFr4oaS0azgFrXS-86" edge="1">
          <mxGeometry relative="1" as="geometry" />
        </mxCell>
        <mxCell id="fGc8xeFr4oaS0azgFrXS-30" style="rounded=0;orthogonalLoop=1;jettySize=auto;html=1;entryX=0;entryY=0.5;entryDx=0;entryDy=0;endArrow=none;startFill=0;" parent="1" source="fGc8xeFr4oaS0azgFrXS-31" target="fGc8xeFr4oaS0azgFrXS-89" edge="1">
          <mxGeometry relative="1" as="geometry" />
        </mxCell>
        <mxCell id="fGc8xeFr4oaS0azgFrXS-31" value="Policia" style="rounded=0;whiteSpace=wrap;html=1;" parent="1" vertex="1">
          <mxGeometry x="3117" y="1915" width="120" height="60" as="geometry" />
        </mxCell>
        <mxCell id="fGc8xeFr4oaS0azgFrXS-32" value="fecha_nacimiento" style="text;html=1;align=center;verticalAlign=middle;whiteSpace=wrap;rounded=0;" parent="1" vertex="1">
          <mxGeometry x="2850" y="1597.5" width="108" height="30" as="geometry" />
        </mxCell>
        <mxCell id="fGc8xeFr4oaS0azgFrXS-33" value="nombre_completo" style="text;html=1;align=center;verticalAlign=middle;whiteSpace=wrap;rounded=0;" parent="1" vertex="1">
          <mxGeometry x="2850" y="1632.5" width="108" height="30" as="geometry" />
        </mxCell>
        <mxCell id="fGc8xeFr4oaS0azgFrXS-34" value="cÃ©dula_identidad" style="text;html=1;align=center;verticalAlign=middle;whiteSpace=wrap;rounded=0;fontStyle=0" parent="1" vertex="1">
          <mxGeometry x="2856.5" y="1563.5" width="102" height="30" as="geometry" />
        </mxCell>
        <mxCell id="fGc8xeFr4oaS0azgFrXS-35" style="rounded=0;orthogonalLoop=1;jettySize=auto;html=1;endArrow=none;startFill=0;entryX=0.25;entryY=0;entryDx=0;entryDy=0;" parent="1" source="fGc8xeFr4oaS0azgFrXS-36" target="fGc8xeFr4oaS0azgFrXS-9" edge="1">
          <mxGeometry relative="1" as="geometry">
            <mxPoint x="3380.5" y="1609" as="targetPoint" />
          </mxGeometry>
        </mxCell>
        <mxCell id="fGc8xeFr4oaS0azgFrXS-36" value="nro_credencial" style="text;html=1;align=center;verticalAlign=middle;whiteSpace=wrap;rounded=0;fontStyle=4" parent="1" vertex="1">
          <mxGeometry x="2900" y="1525" width="108" height="30" as="geometry" />
        </mxCell>
        <mxCell id="fGc8xeFr4oaS0azgFrXS-37" style="rounded=0;orthogonalLoop=1;jettySize=auto;html=1;endArrow=none;startFill=0;entryX=0;entryY=0.5;entryDx=0;entryDy=0;" parent="1" source="fGc8xeFr4oaS0azgFrXS-40" target="fGc8xeFr4oaS0azgFrXS-102" edge="1">
          <mxGeometry relative="1" as="geometry" />
        </mxCell>
        <mxCell id="fGc8xeFr4oaS0azgFrXS-38" style="rounded=0;orthogonalLoop=1;jettySize=auto;html=1;entryX=0;entryY=0.5;entryDx=0;entryDy=0;endArrow=none;startFill=0;" parent="1" source="fGc8xeFr4oaS0azgFrXS-40" target="fGc8xeFr4oaS0azgFrXS-103" edge="1">
          <mxGeometry relative="1" as="geometry" />
        </mxCell>
        <mxCell id="fGc8xeFr4oaS0azgFrXS-39" style="rounded=0;orthogonalLoop=1;jettySize=auto;html=1;endArrow=none;startFill=0;entryX=0;entryY=0.5;entryDx=0;entryDy=0;" parent="1" source="fGc8xeFr4oaS0azgFrXS-40" target="fGc8xeFr4oaS0azgFrXS-104" edge="1">
          <mxGeometry relative="1" as="geometry" />
        </mxCell>
        <mxCell id="fGc8xeFr4oaS0azgFrXS-40" value="Partido" style="rounded=0;whiteSpace=wrap;html=1;" parent="1" vertex="1">
          <mxGeometry x="5391" y="1747.5" width="120" height="60" as="geometry" />
        </mxCell>
        <mxCell id="fGc8xeFr4oaS0azgFrXS-41" style="rounded=0;orthogonalLoop=1;jettySize=auto;html=1;endArrow=none;startFill=0;entryX=1;entryY=0;entryDx=0;entryDy=0;exitX=0;exitY=0.5;exitDx=0;exitDy=0;" parent="1" source="fGc8xeFr4oaS0azgFrXS-42" target="fGc8xeFr4oaS0azgFrXS-40" edge="1">
          <mxGeometry relative="1" as="geometry" />
        </mxCell>
        <mxCell id="fGc8xeFr4oaS0azgFrXS-42" value="id" style="text;html=1;align=left;verticalAlign=middle;whiteSpace=wrap;rounded=0;fontStyle=4" parent="1" vertex="1">
          <mxGeometry x="5539" y="1687.5" width="38" height="30" as="geometry" />
        </mxCell>
        <mxCell id="fGc8xeFr4oaS0azgFrXS-43" style="rounded=0;orthogonalLoop=1;jettySize=auto;html=1;entryX=1.004;entryY=0.178;entryDx=0;entryDy=0;endArrow=none;startFill=0;entryPerimeter=0;exitX=0;exitY=0.5;exitDx=0;exitDy=0;" parent="1" source="fGc8xeFr4oaS0azgFrXS-44" target="fGc8xeFr4oaS0azgFrXS-40" edge="1">
          <mxGeometry relative="1" as="geometry" />
        </mxCell>
        <mxCell id="fGc8xeFr4oaS0azgFrXS-44" value="nombre" style="text;html=1;align=left;verticalAlign=middle;whiteSpace=wrap;rounded=0;fontStyle=0" parent="1" vertex="1">
          <mxGeometry x="5539" y="1717.5" width="108" height="30" as="geometry" />
        </mxCell>
        <mxCell id="fGc8xeFr4oaS0azgFrXS-45" style="rounded=0;orthogonalLoop=1;jettySize=auto;html=1;endArrow=none;startFill=0;" parent="1" source="fGc8xeFr4oaS0azgFrXS-46" target="fGc8xeFr4oaS0azgFrXS-62" edge="1">
          <mxGeometry relative="1" as="geometry" />
        </mxCell>
        <mxCell id="fGc8xeFr4oaS0azgFrXS-284" style="edgeStyle=orthogonalEdgeStyle;rounded=0;orthogonalLoop=1;jettySize=auto;html=1;endArrow=none;startFill=0;" parent="1" source="fGc8xeFr4oaS0azgFrXS-46" target="fGc8xeFr4oaS0azgFrXS-283" edge="1">
          <mxGeometry relative="1" as="geometry" />
        </mxCell>
        <mxCell id="fGc8xeFr4oaS0azgFrXS-46" value="Establecimiento" style="rounded=0;whiteSpace=wrap;html=1;" parent="1" vertex="1">
          <mxGeometry x="3414" y="2040" width="120" height="60" as="geometry" />
        </mxCell>
        <mxCell id="fGc8xeFr4oaS0azgFrXS-47" style="edgeStyle=orthogonalEdgeStyle;rounded=0;orthogonalLoop=1;jettySize=auto;html=1;entryX=0;entryY=0.25;entryDx=0;entryDy=0;exitX=0.5;exitY=1;exitDx=0;exitDy=0;endArrow=none;startFill=0;" parent="1" source="fGc8xeFr4oaS0azgFrXS-48" target="fGc8xeFr4oaS0azgFrXS-54" edge="1">
          <mxGeometry relative="1" as="geometry" />
        </mxCell>
        <mxCell id="fGc8xeFr4oaS0azgFrXS-48" value="Escuela" style="rounded=0;whiteSpace=wrap;html=1;" parent="1" vertex="1">
          <mxGeometry x="3500" y="1847.5" width="120" height="60" as="geometry" />
        </mxCell>
        <mxCell id="fGc8xeFr4oaS0azgFrXS-49" style="edgeStyle=orthogonalEdgeStyle;rounded=0;orthogonalLoop=1;jettySize=auto;html=1;endArrow=none;startFill=0;" parent="1" source="fGc8xeFr4oaS0azgFrXS-50" target="fGc8xeFr4oaS0azgFrXS-54" edge="1">
          <mxGeometry relative="1" as="geometry" />
        </mxCell>
        <mxCell id="fGc8xeFr4oaS0azgFrXS-50" value="Liceo" style="rounded=0;whiteSpace=wrap;html=1;" parent="1" vertex="1">
          <mxGeometry x="3414" y="1777.5" width="120" height="60" as="geometry" />
        </mxCell>
        <mxCell id="fGc8xeFr4oaS0azgFrXS-51" style="edgeStyle=orthogonalEdgeStyle;rounded=0;orthogonalLoop=1;jettySize=auto;html=1;entryX=0;entryY=0.75;entryDx=0;entryDy=0;exitX=0.5;exitY=1;exitDx=0;exitDy=0;endArrow=none;startFill=0;" parent="1" source="fGc8xeFr4oaS0azgFrXS-52" target="fGc8xeFr4oaS0azgFrXS-54" edge="1">
          <mxGeometry relative="1" as="geometry" />
        </mxCell>
        <mxCell id="fGc8xeFr4oaS0azgFrXS-52" value="Universidad" style="rounded=0;whiteSpace=wrap;html=1;" parent="1" vertex="1">
          <mxGeometry x="3332" y="1850" width="120" height="60" as="geometry" />
        </mxCell>
        <mxCell id="fGc8xeFr4oaS0azgFrXS-53" style="rounded=0;orthogonalLoop=1;jettySize=auto;html=1;endArrow=none;startFill=0;" parent="1" source="fGc8xeFr4oaS0azgFrXS-54" target="fGc8xeFr4oaS0azgFrXS-46" edge="1">
          <mxGeometry relative="1" as="geometry" />
        </mxCell>
        <mxCell id="fGc8xeFr4oaS0azgFrXS-54" value="" style="triangle;whiteSpace=wrap;html=1;rotation=90;" parent="1" vertex="1">
          <mxGeometry x="3444" y="1945" width="60" height="80" as="geometry" />
        </mxCell>
        <mxCell id="fGc8xeFr4oaS0azgFrXS-56" value="Circuito" style="rounded=0;whiteSpace=wrap;html=1;" parent="1" vertex="1">
          <mxGeometry x="3836" y="2040" width="120" height="60" as="geometry" />
        </mxCell>
        <mxCell id="fGc8xeFr4oaS0azgFrXS-57" style="rounded=0;orthogonalLoop=1;jettySize=auto;html=1;endArrow=none;startFill=0;" parent="1" source="fGc8xeFr4oaS0azgFrXS-58" edge="1">
          <mxGeometry relative="1" as="geometry">
            <mxPoint x="3437" y="2100" as="targetPoint" />
          </mxGeometry>
        </mxCell>
        <mxCell id="fGc8xeFr4oaS0azgFrXS-58" value="direcciÃ³n" style="text;html=1;align=center;verticalAlign=middle;whiteSpace=wrap;rounded=0;fontStyle=4" parent="1" vertex="1">
          <mxGeometry x="3377" y="2140" width="54" height="30" as="geometry" />
        </mxCell>
        <mxCell id="fGc8xeFr4oaS0azgFrXS-59" value="1" style="text;html=1;align=center;verticalAlign=middle;whiteSpace=wrap;rounded=0;" parent="1" vertex="1">
          <mxGeometry x="3605" y="2037.5" width="20" height="25" as="geometry" />
        </mxCell>
        <mxCell id="fGc8xeFr4oaS0azgFrXS-60" value="N" style="text;html=1;align=center;verticalAlign=middle;whiteSpace=wrap;rounded=0;" parent="1" vertex="1">
          <mxGeometry x="3715" y="2037.5" width="30" height="30" as="geometry" />
        </mxCell>
        <mxCell id="fGc8xeFr4oaS0azgFrXS-61" style="rounded=0;orthogonalLoop=1;jettySize=auto;html=1;endArrow=none;startFill=0;" parent="1" source="fGc8xeFr4oaS0azgFrXS-62" target="fGc8xeFr4oaS0azgFrXS-56" edge="1">
          <mxGeometry relative="1" as="geometry" />
        </mxCell>
        <mxCell id="fGc8xeFr4oaS0azgFrXS-62" value="tiene" style="rhombus;whiteSpace=wrap;html=1;" parent="1" vertex="1">
          <mxGeometry x="3635" y="2027.5" width="80" height="80" as="geometry" />
        </mxCell>
        <mxCell id="fGc8xeFr4oaS0azgFrXS-63" style="rounded=0;orthogonalLoop=1;jettySize=auto;html=1;endArrow=none;startFill=0;entryX=0.75;entryY=0;entryDx=0;entryDy=0;exitX=0;exitY=0.5;exitDx=0;exitDy=0;" parent="1" source="fGc8xeFr4oaS0azgFrXS-64" target="fGc8xeFr4oaS0azgFrXS-4" edge="1">
          <mxGeometry relative="1" as="geometry" />
        </mxCell>
        <mxCell id="fGc8xeFr4oaS0azgFrXS-64" value="nro" style="text;html=1;align=center;verticalAlign=middle;whiteSpace=wrap;rounded=0;fontStyle=4" parent="1" vertex="1">
          <mxGeometry x="3951" y="1952.5" width="39" height="30" as="geometry" />
        </mxCell>
        <mxCell id="fGc8xeFr4oaS0azgFrXS-65" style="edgeStyle=orthogonalEdgeStyle;rounded=0;orthogonalLoop=1;jettySize=auto;html=1;endArrow=none;startFill=0;" parent="1" source="fGc8xeFr4oaS0azgFrXS-66" target="fGc8xeFr4oaS0azgFrXS-56" edge="1">
          <mxGeometry relative="1" as="geometry" />
        </mxCell>
        <mxCell id="fGc8xeFr4oaS0azgFrXS-192" style="rounded=0;orthogonalLoop=1;jettySize=auto;html=1;entryX=0.5;entryY=0;entryDx=0;entryDy=0;endArrow=none;startFill=0;" parent="1" source="fGc8xeFr4oaS0azgFrXS-66" target="fGc8xeFr4oaS0azgFrXS-191" edge="1">
          <mxGeometry relative="1" as="geometry" />
        </mxCell>
        <mxCell id="fGc8xeFr4oaS0azgFrXS-66" value="tiene" style="rhombus;whiteSpace=wrap;html=1;" parent="1" vertex="1">
          <mxGeometry x="3856" y="2180" width="80" height="80" as="geometry" />
        </mxCell>
        <mxCell id="fGc8xeFr4oaS0azgFrXS-68" style="rounded=0;orthogonalLoop=1;jettySize=auto;html=1;endArrow=none;startFill=0;exitX=1;exitY=1;exitDx=0;exitDy=0;entryX=0.5;entryY=0;entryDx=0;entryDy=0;" parent="1" source="fGc8xeFr4oaS0azgFrXS-191" target="fGc8xeFr4oaS0azgFrXS-72" edge="1">
          <mxGeometry relative="1" as="geometry">
            <mxPoint x="3980" y="2420" as="targetPoint" />
          </mxGeometry>
        </mxCell>
        <mxCell id="fGc8xeFr4oaS0azgFrXS-185" style="rounded=0;orthogonalLoop=1;jettySize=auto;html=1;endArrow=none;startFill=0;exitX=1;exitY=0.5;exitDx=0;exitDy=0;" parent="1" source="fGc8xeFr4oaS0azgFrXS-191" target="fGc8xeFr4oaS0azgFrXS-184" edge="1">
          <mxGeometry relative="1" as="geometry" />
        </mxCell>
        <mxCell id="fGc8xeFr4oaS0azgFrXS-69" value="FormulaMesa" style="rounded=0;whiteSpace=wrap;html=1;" parent="1" vertex="1">
          <mxGeometry x="3836" y="2340" width="120" height="60" as="geometry" />
        </mxCell>
        <mxCell id="fGc8xeFr4oaS0azgFrXS-70" value="1" style="text;html=1;align=center;verticalAlign=middle;whiteSpace=wrap;rounded=0;" parent="1" vertex="1">
          <mxGeometry x="3898" y="2150" width="30" height="30" as="geometry" />
        </mxCell>
        <mxCell id="fGc8xeFr4oaS0azgFrXS-71" value="N" style="text;html=1;align=center;verticalAlign=middle;whiteSpace=wrap;rounded=0;" parent="1" vertex="1">
          <mxGeometry x="3898" y="2260" width="30" height="30" as="geometry" />
        </mxCell>
        <mxCell id="fGc8xeFr4oaS0azgFrXS-72" value="nro_mesa" style="text;html=1;align=center;verticalAlign=middle;whiteSpace=wrap;rounded=0;fontStyle=4" parent="1" vertex="1">
          <mxGeometry x="3990" y="2420" width="39" height="30" as="geometry" />
        </mxCell>
        <mxCell id="fGc8xeFr4oaS0azgFrXS-73" style="edgeStyle=orthogonalEdgeStyle;rounded=0;orthogonalLoop=1;jettySize=auto;html=1;endArrow=none;startFill=0;entryX=0.25;entryY=1;entryDx=0;entryDy=0;" parent="1" source="fGc8xeFr4oaS0azgFrXS-74" target="fGc8xeFr4oaS0azgFrXS-191" edge="1">
          <mxGeometry relative="1" as="geometry">
            <mxPoint x="3870" y="2410" as="targetPoint" />
          </mxGeometry>
        </mxCell>
        <mxCell id="fGc8xeFr4oaS0azgFrXS-74" value="tiene" style="rhombus;whiteSpace=wrap;html=1;" parent="1" vertex="1">
          <mxGeometry x="2800" y="2390" width="80" height="80" as="geometry" />
        </mxCell>
        <mxCell id="fGc8xeFr4oaS0azgFrXS-75" style="edgeStyle=orthogonalEdgeStyle;rounded=0;orthogonalLoop=1;jettySize=auto;html=1;endArrow=none;startFill=0;entryX=0.5;entryY=1;entryDx=0;entryDy=0;" parent="1" source="fGc8xeFr4oaS0azgFrXS-76" target="fGc8xeFr4oaS0azgFrXS-191" edge="1">
          <mxGeometry relative="1" as="geometry" />
        </mxCell>
        <mxCell id="fGc8xeFr4oaS0azgFrXS-76" value="tiene" style="rhombus;whiteSpace=wrap;html=1;" parent="1" vertex="1">
          <mxGeometry x="2940" y="2470" width="80" height="80" as="geometry" />
        </mxCell>
        <mxCell id="fGc8xeFr4oaS0azgFrXS-77" style="edgeStyle=orthogonalEdgeStyle;rounded=0;orthogonalLoop=1;jettySize=auto;html=1;entryX=0.75;entryY=1;entryDx=0;entryDy=0;endArrow=none;startFill=0;" parent="1" source="fGc8xeFr4oaS0azgFrXS-78" target="fGc8xeFr4oaS0azgFrXS-191" edge="1">
          <mxGeometry relative="1" as="geometry" />
        </mxCell>
        <mxCell id="fGc8xeFr4oaS0azgFrXS-78" value="tiene" style="rhombus;whiteSpace=wrap;html=1;" parent="1" vertex="1">
          <mxGeometry x="3080" y="2550" width="80" height="80" as="geometry" />
        </mxCell>
        <mxCell id="fGc8xeFr4oaS0azgFrXS-79" value="1" style="text;html=1;align=center;verticalAlign=middle;whiteSpace=wrap;rounded=0;" parent="1" vertex="1">
          <mxGeometry x="2808" y="2360" width="30" height="30" as="geometry" />
        </mxCell>
        <mxCell id="fGc8xeFr4oaS0azgFrXS-80" value="1" style="text;html=1;align=center;verticalAlign=middle;whiteSpace=wrap;rounded=0;" parent="1" vertex="1">
          <mxGeometry x="2950" y="2440" width="30" height="30" as="geometry" />
        </mxCell>
        <mxCell id="fGc8xeFr4oaS0azgFrXS-81" value="1" style="text;html=1;align=center;verticalAlign=middle;whiteSpace=wrap;rounded=0;" parent="1" vertex="1">
          <mxGeometry x="3090" y="2520" width="30" height="30" as="geometry" />
        </mxCell>
        <mxCell id="fGc8xeFr4oaS0azgFrXS-82" value="1" style="text;html=1;align=center;verticalAlign=middle;whiteSpace=wrap;rounded=0;" parent="1" vertex="1">
          <mxGeometry x="3160" y="2590" width="30" height="30" as="geometry" />
        </mxCell>
        <mxCell id="fGc8xeFr4oaS0azgFrXS-83" value="1" style="text;html=1;align=center;verticalAlign=middle;whiteSpace=wrap;rounded=0;" parent="1" vertex="1">
          <mxGeometry x="3020" y="2510" width="30" height="30" as="geometry" />
        </mxCell>
        <mxCell id="fGc8xeFr4oaS0azgFrXS-84" value="1" style="text;html=1;align=center;verticalAlign=middle;whiteSpace=wrap;rounded=0;" parent="1" vertex="1">
          <mxGeometry x="2880" y="2430" width="30" height="30" as="geometry" />
        </mxCell>
        <mxCell id="fGc8xeFr4oaS0azgFrXS-85" style="rounded=0;orthogonalLoop=1;jettySize=auto;html=1;endArrow=none;startFill=0;" parent="1" source="fGc8xeFr4oaS0azgFrXS-86" target="fGc8xeFr4oaS0azgFrXS-46" edge="1">
          <mxGeometry relative="1" as="geometry" />
        </mxCell>
        <mxCell id="fGc8xeFr4oaS0azgFrXS-86" value="asigando" style="rhombus;whiteSpace=wrap;html=1;" parent="1" vertex="1">
          <mxGeometry x="3137" y="2030" width="80" height="80" as="geometry" />
        </mxCell>
        <mxCell id="fGc8xeFr4oaS0azgFrXS-87" value="N" style="text;html=1;align=center;verticalAlign=middle;whiteSpace=wrap;rounded=0;" parent="1" vertex="1">
          <mxGeometry x="3147" y="1995" width="30" height="30" as="geometry" />
        </mxCell>
        <mxCell id="fGc8xeFr4oaS0azgFrXS-88" value="N" style="text;html=1;align=center;verticalAlign=middle;whiteSpace=wrap;rounded=0;" parent="1" vertex="1">
          <mxGeometry x="3217" y="2065" width="30" height="30" as="geometry" />
        </mxCell>
        <mxCell id="fGc8xeFr4oaS0azgFrXS-89" value="nro_comisaria" style="text;html=1;align=center;verticalAlign=middle;whiteSpace=wrap;rounded=0;fontStyle=0" parent="1" vertex="1">
          <mxGeometry x="3205" y="1860" width="103" height="30" as="geometry" />
        </mxCell>
        <mxCell id="fGc8xeFr4oaS0azgFrXS-90" value="es_accesible" style="text;html=1;align=center;verticalAlign=middle;whiteSpace=wrap;rounded=0;fontStyle=0" parent="1" vertex="1">
          <mxGeometry x="3978" y="1995" width="90" height="30" as="geometry" />
        </mxCell>
        <mxCell id="fGc8xeFr4oaS0azgFrXS-91" style="rounded=0;orthogonalLoop=1;jettySize=auto;html=1;endArrow=none;startFill=0;exitX=1;exitY=0.5;exitDx=0;exitDy=0;" parent="1" source="fGc8xeFr4oaS0azgFrXS-27" target="fGc8xeFr4oaS0azgFrXS-9" edge="1">
          <mxGeometry relative="1" as="geometry">
            <mxPoint x="3000" y="1715" as="sourcePoint" />
          </mxGeometry>
        </mxCell>
        <mxCell id="fGc8xeFr4oaS0azgFrXS-94" style="rounded=0;orthogonalLoop=1;jettySize=auto;html=1;endArrow=none;startFill=0;exitX=1;exitY=0.5;exitDx=0;exitDy=0;entryX=0;entryY=0.5;entryDx=0;entryDy=0;" parent="1" source="fGc8xeFr4oaS0azgFrXS-95" target="fGc8xeFr4oaS0azgFrXS-58" edge="1">
          <mxGeometry relative="1" as="geometry" />
        </mxCell>
        <mxCell id="fGc8xeFr4oaS0azgFrXS-95" value="pueblo" style="text;html=1;align=center;verticalAlign=middle;whiteSpace=wrap;rounded=0;fontStyle=0" parent="1" vertex="1">
          <mxGeometry x="3267" y="2160" width="74" height="30" as="geometry" />
        </mxCell>
        <mxCell id="fGc8xeFr4oaS0azgFrXS-96" style="rounded=0;orthogonalLoop=1;jettySize=auto;html=1;entryX=0;entryY=1;entryDx=0;entryDy=0;endArrow=none;startFill=0;exitX=1;exitY=0.5;exitDx=0;exitDy=0;" parent="1" source="fGc8xeFr4oaS0azgFrXS-97" target="fGc8xeFr4oaS0azgFrXS-58" edge="1">
          <mxGeometry relative="1" as="geometry" />
        </mxCell>
        <mxCell id="fGc8xeFr4oaS0azgFrXS-97" value="ciudad/paraje" style="text;html=1;align=center;verticalAlign=middle;whiteSpace=wrap;rounded=0;fontStyle=0" parent="1" vertex="1">
          <mxGeometry x="3267" y="2190" width="74" height="30" as="geometry" />
        </mxCell>
        <mxCell id="fGc8xeFr4oaS0azgFrXS-305" style="rounded=0;orthogonalLoop=1;jettySize=auto;html=1;entryX=0;entryY=0.25;entryDx=0;entryDy=0;endArrow=none;startFill=0;" parent="1" source="fGc8xeFr4oaS0azgFrXS-99" target="fGc8xeFr4oaS0azgFrXS-58" edge="1">
          <mxGeometry relative="1" as="geometry" />
        </mxCell>
        <mxCell id="fGc8xeFr4oaS0azgFrXS-99" value="barrio" style="text;html=1;align=center;verticalAlign=middle;whiteSpace=wrap;rounded=0;fontStyle=0" parent="1" vertex="1">
          <mxGeometry x="3267" y="2122.5" width="74" height="30" as="geometry" />
        </mxCell>
        <mxCell id="fGc8xeFr4oaS0azgFrXS-100" style="rounded=0;orthogonalLoop=1;jettySize=auto;html=1;entryX=0.431;entryY=0.03;entryDx=0;entryDy=0;endArrow=none;startFill=0;exitX=1;exitY=0.5;exitDx=0;exitDy=0;entryPerimeter=0;" parent="1" source="fGc8xeFr4oaS0azgFrXS-101" target="fGc8xeFr4oaS0azgFrXS-158" edge="1">
          <mxGeometry relative="1" as="geometry" />
        </mxCell>
        <mxCell id="fGc8xeFr4oaS0azgFrXS-101" value="organismo_trabaja" style="text;html=1;align=center;verticalAlign=middle;whiteSpace=wrap;rounded=0;fontStyle=0" parent="1" vertex="1">
          <mxGeometry x="2830" y="2062.5" width="110" height="30" as="geometry" />
        </mxCell>
        <mxCell id="fGc8xeFr4oaS0azgFrXS-102" value="direccion_sede" style="text;html=1;align=left;verticalAlign=middle;whiteSpace=wrap;rounded=0;fontStyle=0" parent="1" vertex="1">
          <mxGeometry x="5539" y="1747.5" width="108" height="30" as="geometry" />
        </mxCell>
        <mxCell id="fGc8xeFr4oaS0azgFrXS-103" value="presidente" style="text;html=1;align=left;verticalAlign=middle;whiteSpace=wrap;rounded=0;fontStyle=0" parent="1" vertex="1">
          <mxGeometry x="5539" y="1777.5" width="108" height="30" as="geometry" />
        </mxCell>
        <mxCell id="fGc8xeFr4oaS0azgFrXS-104" value="vicepresidente" style="text;html=1;align=left;verticalAlign=middle;whiteSpace=wrap;rounded=0;fontStyle=0" parent="1" vertex="1">
          <mxGeometry x="5539" y="1802.5" width="108" height="30" as="geometry" />
        </mxCell>
        <mxCell id="fGc8xeFr4oaS0azgFrXS-105" value="id" style="text;html=1;align=left;verticalAlign=middle;whiteSpace=wrap;rounded=0;fontStyle=4" parent="1" vertex="1">
          <mxGeometry x="4756" y="2205" width="38" height="30" as="geometry" />
        </mxCell>
        <mxCell id="fGc8xeFr4oaS0azgFrXS-106" value="fecha_hora_inicio" style="text;html=1;align=left;verticalAlign=middle;whiteSpace=wrap;rounded=0;fontStyle=0" parent="1" vertex="1">
          <mxGeometry x="4762" y="2230" width="103" height="30" as="geometry" />
        </mxCell>
        <mxCell id="fGc8xeFr4oaS0azgFrXS-107" value="nombre" style="text;html=1;align=left;verticalAlign=middle;whiteSpace=wrap;rounded=0;fontStyle=0" parent="1" vertex="1">
          <mxGeometry x="4762" y="2290" width="44" height="30" as="geometry" />
        </mxCell>
        <mxCell id="fGc8xeFr4oaS0azgFrXS-109" value="ballotage" style="rounded=0;whiteSpace=wrap;html=1;" parent="1" vertex="1">
          <mxGeometry x="4977" y="2338" width="120" height="60" as="geometry" />
        </mxCell>
        <mxCell id="fGc8xeFr4oaS0azgFrXS-110" style="edgeStyle=orthogonalEdgeStyle;rounded=0;orthogonalLoop=1;jettySize=auto;html=1;endArrow=none;startFill=0;entryX=0;entryY=0.25;entryDx=0;entryDy=0;" parent="1" source="fGc8xeFr4oaS0azgFrXS-111" target="fGc8xeFr4oaS0azgFrXS-115" edge="1">
          <mxGeometry relative="1" as="geometry">
            <Array as="points">
              <mxPoint x="4933" y="2435" />
              <mxPoint x="4933" y="2375" />
              <mxPoint x="4873" y="2375" />
            </Array>
          </mxGeometry>
        </mxCell>
        <mxCell id="fGc8xeFr4oaS0azgFrXS-111" value="referÃ©ndum" style="rounded=0;whiteSpace=wrap;html=1;" parent="1" vertex="1">
          <mxGeometry x="4977" y="2405" width="120" height="60" as="geometry" />
        </mxCell>
        <mxCell id="fGc8xeFr4oaS0azgFrXS-112" style="edgeStyle=orthogonalEdgeStyle;rounded=0;orthogonalLoop=1;jettySize=auto;html=1;entryX=0;entryY=0.75;entryDx=0;entryDy=0;exitX=0;exitY=0.5;exitDx=0;exitDy=0;endArrow=none;startFill=0;" parent="1" source="fGc8xeFr4oaS0azgFrXS-113" target="fGc8xeFr4oaS0azgFrXS-115" edge="1">
          <mxGeometry relative="1" as="geometry" />
        </mxCell>
        <mxCell id="fGc8xeFr4oaS0azgFrXS-113" value="presidencial" style="rounded=0;whiteSpace=wrap;html=1;" parent="1" vertex="1">
          <mxGeometry x="4977" y="2265" width="120" height="60" as="geometry" />
        </mxCell>
        <mxCell id="fGc8xeFr4oaS0azgFrXS-114" style="edgeStyle=orthogonalEdgeStyle;rounded=0;orthogonalLoop=1;jettySize=auto;html=1;entryX=0;entryY=0.5;entryDx=0;entryDy=0;exitX=0;exitY=0.25;exitDx=0;exitDy=0;endArrow=none;startFill=0;" parent="1" source="fGc8xeFr4oaS0azgFrXS-115" target="fGc8xeFr4oaS0azgFrXS-116" edge="1">
          <mxGeometry relative="1" as="geometry">
            <Array as="points">
              <mxPoint x="4873" y="2385" />
              <mxPoint x="4925" y="2385" />
              <mxPoint x="4925" y="2505" />
            </Array>
          </mxGeometry>
        </mxCell>
        <mxCell id="fGc8xeFr4oaS0azgFrXS-115" value="" style="triangle;whiteSpace=wrap;html=1;rotation=-180;flipH=0;flipV=0;" parent="1" vertex="1">
          <mxGeometry x="4813" y="2330" width="60" height="80" as="geometry" />
        </mxCell>
        <mxCell id="fGc8xeFr4oaS0azgFrXS-116" value="plebiscito" style="rounded=0;whiteSpace=wrap;html=1;" parent="1" vertex="1">
          <mxGeometry x="4977" y="2475" width="120" height="60" as="geometry" />
        </mxCell>
        <mxCell id="fGc8xeFr4oaS0azgFrXS-117" style="edgeStyle=orthogonalEdgeStyle;rounded=0;orthogonalLoop=1;jettySize=auto;html=1;endArrow=none;startFill=0;entryX=1;entryY=0.5;entryDx=0;entryDy=0;" parent="1" source="fGc8xeFr4oaS0azgFrXS-118" target="fGc8xeFr4oaS0azgFrXS-127" edge="1">
          <mxGeometry relative="1" as="geometry">
            <mxPoint x="4823" y="1632.5" as="targetPoint" />
          </mxGeometry>
        </mxCell>
        <mxCell id="fGc8xeFr4oaS0azgFrXS-118" value="Papeleta" style="rounded=0;whiteSpace=wrap;html=1;" parent="1" vertex="1">
          <mxGeometry x="4663" y="1657.5" width="120" height="60" as="geometry" />
        </mxCell>
        <mxCell id="fGc8xeFr4oaS0azgFrXS-119" style="rounded=0;orthogonalLoop=1;jettySize=auto;html=1;endArrow=none;startFill=0;" parent="1" source="fGc8xeFr4oaS0azgFrXS-120" target="fGc8xeFr4oaS0azgFrXS-118" edge="1">
          <mxGeometry relative="1" as="geometry" />
        </mxCell>
        <mxCell id="fGc8xeFr4oaS0azgFrXS-194" style="edgeStyle=orthogonalEdgeStyle;rounded=0;orthogonalLoop=1;jettySize=auto;html=1;entryX=0.5;entryY=0;entryDx=0;entryDy=0;endArrow=none;startFill=0;" parent="1" source="fGc8xeFr4oaS0azgFrXS-120" target="fGc8xeFr4oaS0azgFrXS-18" edge="1">
          <mxGeometry relative="1" as="geometry" />
        </mxCell>
        <mxCell id="fGc8xeFr4oaS0azgFrXS-120" value="EstaEn" style="rhombus;whiteSpace=wrap;html=1;" parent="1" vertex="1">
          <mxGeometry x="4683" y="2047.5" width="80" height="80" as="geometry" />
        </mxCell>
        <mxCell id="fGc8xeFr4oaS0azgFrXS-121" value="N" style="text;html=1;align=center;verticalAlign=middle;whiteSpace=wrap;rounded=0;" parent="1" vertex="1">
          <mxGeometry x="4131.5" y="2340" width="30" height="30" as="geometry" />
        </mxCell>
        <mxCell id="fGc8xeFr4oaS0azgFrXS-122" value="N" style="text;html=1;align=center;verticalAlign=middle;whiteSpace=wrap;rounded=0;" parent="1" vertex="1">
          <mxGeometry x="4726" y="2017.5" width="30" height="30" as="geometry" />
        </mxCell>
        <mxCell id="fGc8xeFr4oaS0azgFrXS-123" style="rounded=0;orthogonalLoop=1;jettySize=auto;html=1;entryX=0;entryY=0.5;entryDx=0;entryDy=0;endArrow=none;startFill=0;" parent="1" source="fGc8xeFr4oaS0azgFrXS-124" target="fGc8xeFr4oaS0azgFrXS-137" edge="1">
          <mxGeometry relative="1" as="geometry" />
        </mxCell>
        <mxCell id="fGc8xeFr4oaS0azgFrXS-124" value="comÃºn" style="rounded=0;whiteSpace=wrap;html=1;" parent="1" vertex="1">
          <mxGeometry x="4977" y="1602.5" width="120" height="60" as="geometry" />
        </mxCell>
        <mxCell id="fGc8xeFr4oaS0azgFrXS-125" style="edgeStyle=orthogonalEdgeStyle;rounded=0;orthogonalLoop=1;jettySize=auto;html=1;endArrow=none;startFill=0;exitX=0.014;exitY=0.686;exitDx=0;exitDy=0;exitPerimeter=0;" parent="1" source="fGc8xeFr4oaS0azgFrXS-127" target="fGc8xeFr4oaS0azgFrXS-124" edge="1">
          <mxGeometry relative="1" as="geometry">
            <mxPoint x="4883" y="1632.5" as="sourcePoint" />
          </mxGeometry>
        </mxCell>
        <mxCell id="fGc8xeFr4oaS0azgFrXS-126" style="edgeStyle=orthogonalEdgeStyle;rounded=0;orthogonalLoop=1;jettySize=auto;html=1;entryX=0;entryY=0.5;entryDx=0;entryDy=0;endArrow=none;startFill=0;exitX=0;exitY=0.25;exitDx=0;exitDy=0;" parent="1" source="fGc8xeFr4oaS0azgFrXS-127" target="fGc8xeFr4oaS0azgFrXS-132" edge="1">
          <mxGeometry relative="1" as="geometry">
            <Array as="points">
              <mxPoint x="4928" y="1707.5" />
              <mxPoint x="4928" y="1777.5" />
            </Array>
          </mxGeometry>
        </mxCell>
        <mxCell id="fGc8xeFr4oaS0azgFrXS-127" value="" style="triangle;whiteSpace=wrap;html=1;rotation=-180;flipH=0;flipV=0;" parent="1" vertex="1">
          <mxGeometry x="4821" y="1647.5" width="60" height="80" as="geometry" />
        </mxCell>
        <mxCell id="fGc8xeFr4oaS0azgFrXS-128" style="edgeStyle=orthogonalEdgeStyle;rounded=0;orthogonalLoop=1;jettySize=auto;html=1;entryX=0;entryY=0.5;entryDx=0;entryDy=0;endArrow=none;startFill=0;" parent="1" source="fGc8xeFr4oaS0azgFrXS-132" target="fGc8xeFr4oaS0azgFrXS-141" edge="1">
          <mxGeometry relative="1" as="geometry" />
        </mxCell>
        <mxCell id="fGc8xeFr4oaS0azgFrXS-129" style="rounded=0;orthogonalLoop=1;jettySize=auto;html=1;entryX=0.5;entryY=0;entryDx=0;entryDy=0;endArrow=none;startFill=0;" parent="1" source="fGc8xeFr4oaS0azgFrXS-132" target="fGc8xeFr4oaS0azgFrXS-144" edge="1">
          <mxGeometry relative="1" as="geometry" />
        </mxCell>
        <mxCell id="fGc8xeFr4oaS0azgFrXS-130" style="rounded=0;orthogonalLoop=1;jettySize=auto;html=1;entryX=0.5;entryY=0;entryDx=0;entryDy=0;endArrow=none;startFill=0;" parent="1" source="fGc8xeFr4oaS0azgFrXS-132" target="fGc8xeFr4oaS0azgFrXS-156" edge="1">
          <mxGeometry relative="1" as="geometry" />
        </mxCell>
        <mxCell id="fGc8xeFr4oaS0azgFrXS-131" style="edgeStyle=orthogonalEdgeStyle;rounded=0;orthogonalLoop=1;jettySize=auto;html=1;endArrow=none;startFill=0;" parent="1" source="fGc8xeFr4oaS0azgFrXS-132" target="fGc8xeFr4oaS0azgFrXS-164" edge="1">
          <mxGeometry relative="1" as="geometry">
            <Array as="points">
              <mxPoint x="5062" y="1862.5" />
              <mxPoint x="5331" y="1862.5" />
            </Array>
          </mxGeometry>
        </mxCell>
        <mxCell id="fGc8xeFr4oaS0azgFrXS-132" value="lista" style="rounded=0;whiteSpace=wrap;html=1;" parent="1" vertex="1">
          <mxGeometry x="4975" y="1747.5" width="120" height="60" as="geometry" />
        </mxCell>
        <mxCell id="fGc8xeFr4oaS0azgFrXS-133" style="rounded=0;orthogonalLoop=1;jettySize=auto;html=1;endArrow=none;startFill=0;" parent="1" source="fGc8xeFr4oaS0azgFrXS-134" target="fGc8xeFr4oaS0azgFrXS-118" edge="1">
          <mxGeometry relative="1" as="geometry" />
        </mxCell>
        <mxCell id="fGc8xeFr4oaS0azgFrXS-134" value="id" style="text;html=1;align=center;verticalAlign=middle;whiteSpace=wrap;rounded=0;fontStyle=4" parent="1" vertex="1">
          <mxGeometry x="4703" y="1605" width="38" height="30" as="geometry" />
        </mxCell>
        <mxCell id="fGc8xeFr4oaS0azgFrXS-135" style="rounded=0;orthogonalLoop=1;jettySize=auto;html=1;entryX=0.75;entryY=0;entryDx=0;entryDy=0;endArrow=none;startFill=0;" parent="1" source="fGc8xeFr4oaS0azgFrXS-136" target="fGc8xeFr4oaS0azgFrXS-124" edge="1">
          <mxGeometry relative="1" as="geometry" />
        </mxCell>
        <mxCell id="fGc8xeFr4oaS0azgFrXS-136" value="color" style="text;html=1;align=left;verticalAlign=middle;whiteSpace=wrap;rounded=0;fontStyle=0" parent="1" vertex="1">
          <mxGeometry x="5083" y="1562.5" width="44" height="30" as="geometry" />
        </mxCell>
        <mxCell id="fGc8xeFr4oaS0azgFrXS-137" value="es_sÃ­" style="text;html=1;align=left;verticalAlign=middle;whiteSpace=wrap;rounded=0;fontStyle=0" parent="1" vertex="1">
          <mxGeometry x="5083" y="1532.5" width="44" height="30" as="geometry" />
        </mxCell>
        <mxCell id="fGc8xeFr4oaS0azgFrXS-138" style="rounded=0;orthogonalLoop=1;jettySize=auto;html=1;endArrow=none;startFill=0;" parent="1" source="fGc8xeFr4oaS0azgFrXS-139" target="fGc8xeFr4oaS0azgFrXS-118" edge="1">
          <mxGeometry relative="1" as="geometry" />
        </mxCell>
        <mxCell id="fGc8xeFr4oaS0azgFrXS-139" value="descripcion&amp;nbsp;" style="text;html=1;align=right;verticalAlign=middle;whiteSpace=wrap;rounded=0;fontStyle=0" parent="1" vertex="1">
          <mxGeometry x="4583" y="1615" width="70" height="30" as="geometry" />
        </mxCell>
        <mxCell id="fGc8xeFr4oaS0azgFrXS-140" style="edgeStyle=orthogonalEdgeStyle;rounded=0;orthogonalLoop=1;jettySize=auto;html=1;entryX=0;entryY=0.5;entryDx=0;entryDy=0;endArrow=none;startFill=0;" parent="1" source="fGc8xeFr4oaS0azgFrXS-141" target="fGc8xeFr4oaS0azgFrXS-40" edge="1">
          <mxGeometry relative="1" as="geometry" />
        </mxCell>
        <mxCell id="fGc8xeFr4oaS0azgFrXS-141" value="pertenece" style="rhombus;whiteSpace=wrap;html=1;" parent="1" vertex="1">
          <mxGeometry x="5201" y="1737.5" width="80" height="80" as="geometry" />
        </mxCell>
        <mxCell id="fGc8xeFr4oaS0azgFrXS-142" value="1" style="text;html=1;align=center;verticalAlign=middle;whiteSpace=wrap;rounded=0;" parent="1" vertex="1">
          <mxGeometry x="5281" y="1747.5" width="30" height="30" as="geometry" />
        </mxCell>
        <mxCell id="fGc8xeFr4oaS0azgFrXS-143" value="N" style="text;html=1;align=center;verticalAlign=middle;whiteSpace=wrap;rounded=0;" parent="1" vertex="1">
          <mxGeometry x="5171" y="1747.5" width="30" height="30" as="geometry" />
        </mxCell>
        <mxCell id="fGc8xeFr4oaS0azgFrXS-144" value="&lt;span&gt;nro&lt;/span&gt;" style="text;html=1;align=left;verticalAlign=middle;whiteSpace=wrap;rounded=0;fontStyle=0" parent="1" vertex="1">
          <mxGeometry x="4982" y="1842.5" width="31" height="9" as="geometry" />
        </mxCell>
        <mxCell id="fGc8xeFr4oaS0azgFrXS-145" style="rounded=0;orthogonalLoop=1;jettySize=auto;html=1;entryX=0;entryY=0.5;entryDx=0;entryDy=0;endArrow=none;startFill=0;" parent="1" source="fGc8xeFr4oaS0azgFrXS-148" target="fGc8xeFr4oaS0azgFrXS-153" edge="1">
          <mxGeometry relative="1" as="geometry" />
        </mxCell>
        <mxCell id="fGc8xeFr4oaS0azgFrXS-146" style="rounded=0;orthogonalLoop=1;jettySize=auto;html=1;entryX=0;entryY=0.5;entryDx=0;entryDy=0;endArrow=none;startFill=0;exitX=1;exitY=0.5;exitDx=0;exitDy=0;" parent="1" source="fGc8xeFr4oaS0azgFrXS-156" target="fGc8xeFr4oaS0azgFrXS-154" edge="1">
          <mxGeometry relative="1" as="geometry" />
        </mxCell>
        <mxCell id="fGc8xeFr4oaS0azgFrXS-299" style="edgeStyle=orthogonalEdgeStyle;rounded=0;orthogonalLoop=1;jettySize=auto;html=1;endArrow=none;startFill=0;exitX=0;exitY=1;exitDx=0;exitDy=0;" parent="1" source="fGc8xeFr4oaS0azgFrXS-132" target="fGc8xeFr4oaS0azgFrXS-296" edge="1">
          <mxGeometry relative="1" as="geometry">
            <Array as="points">
              <mxPoint x="4920" y="1807" />
              <mxPoint x="4920" y="2220" />
              <mxPoint x="5137" y="2220" />
            </Array>
          </mxGeometry>
        </mxCell>
        <mxCell id="fGc8xeFr4oaS0azgFrXS-148" value="ParticipanteLista" style="rounded=0;whiteSpace=wrap;html=1;" parent="1" vertex="1">
          <mxGeometry x="4975" y="2072.5" width="120" height="60" as="geometry" />
        </mxCell>
        <mxCell id="fGc8xeFr4oaS0azgFrXS-149" style="rounded=0;orthogonalLoop=1;jettySize=auto;html=1;entryX=0.575;entryY=-0.007;entryDx=0;entryDy=0;endArrow=none;startFill=0;exitX=0;exitY=0.5;exitDx=0;exitDy=0;entryPerimeter=0;" parent="1" source="fGc8xeFr4oaS0azgFrXS-150" target="fGc8xeFr4oaS0azgFrXS-18" edge="1">
          <mxGeometry relative="1" as="geometry" />
        </mxCell>
        <mxCell id="fGc8xeFr4oaS0azgFrXS-150" value="fecha_hora_fin" style="text;html=1;align=left;verticalAlign=middle;whiteSpace=wrap;rounded=0;fontStyle=0" parent="1" vertex="1">
          <mxGeometry x="4762" y="2260" width="103" height="30" as="geometry" />
        </mxCell>
        <mxCell id="fGc8xeFr4oaS0azgFrXS-151" style="rounded=0;orthogonalLoop=1;jettySize=auto;html=1;endArrow=none;startFill=0;" parent="1" source="fGc8xeFr4oaS0azgFrXS-152" target="fGc8xeFr4oaS0azgFrXS-46" edge="1">
          <mxGeometry relative="1" as="geometry" />
        </mxCell>
        <mxCell id="fGc8xeFr4oaS0azgFrXS-152" value="zona" style="text;html=1;align=center;verticalAlign=middle;whiteSpace=wrap;rounded=0;fontStyle=0" parent="1" vertex="1">
          <mxGeometry x="3561" y="2137.5" width="74" height="30" as="geometry" />
        </mxCell>
        <mxCell id="fGc8xeFr4oaS0azgFrXS-153" value="organo_candidato" style="text;html=1;align=left;verticalAlign=middle;whiteSpace=wrap;rounded=0;fontStyle=0" parent="1" vertex="1">
          <mxGeometry x="5115" y="2087.5" width="107" height="30" as="geometry" />
        </mxCell>
        <mxCell id="fGc8xeFr4oaS0azgFrXS-154" value="orden" style="text;html=1;align=left;verticalAlign=middle;whiteSpace=wrap;rounded=0;fontStyle=0" parent="1" vertex="1">
          <mxGeometry x="5115" y="1927.5" width="44" height="30" as="geometry" />
        </mxCell>
        <mxCell id="fGc8xeFr4oaS0azgFrXS-155" style="rounded=0;orthogonalLoop=1;jettySize=auto;html=1;endArrow=none;startFill=0;" parent="1" source="fGc8xeFr4oaS0azgFrXS-156" target="fGc8xeFr4oaS0azgFrXS-148" edge="1">
          <mxGeometry relative="1" as="geometry" />
        </mxCell>
        <mxCell id="fGc8xeFr4oaS0azgFrXS-156" value="pertenece" style="rhombus;whiteSpace=wrap;html=1;" parent="1" vertex="1">
          <mxGeometry x="4995" y="1902.5" width="80" height="80" as="geometry" />
        </mxCell>
        <mxCell id="5WSkeiZae-1Y6LiHX-dT-11" style="edgeStyle=orthogonalEdgeStyle;rounded=0;orthogonalLoop=1;jettySize=auto;html=1;endArrow=none;startFill=0;" parent="1" source="fGc8xeFr4oaS0azgFrXS-158" target="5WSkeiZae-1Y6LiHX-dT-3" edge="1">
          <mxGeometry relative="1" as="geometry" />
        </mxCell>
        <mxCell id="fGc8xeFr4oaS0azgFrXS-158" value="IntegranteMesa" style="rounded=0;whiteSpace=wrap;html=1;" parent="1" vertex="1">
          <mxGeometry x="2920" y="1977.5" width="120" height="60" as="geometry" />
        </mxCell>
        <mxCell id="fGc8xeFr4oaS0azgFrXS-269" style="edgeStyle=orthogonalEdgeStyle;rounded=0;orthogonalLoop=1;jettySize=auto;html=1;endArrow=none;startFill=0;exitX=0;exitY=0.75;exitDx=0;exitDy=0;" parent="1" source="fGc8xeFr4oaS0azgFrXS-159" target="fGc8xeFr4oaS0azgFrXS-25" edge="1">
          <mxGeometry relative="1" as="geometry">
            <Array as="points">
              <mxPoint x="3000" y="2167.5" />
              <mxPoint x="3120" y="2167.5" />
            </Array>
          </mxGeometry>
        </mxCell>
        <mxCell id="fGc8xeFr4oaS0azgFrXS-159" value="" style="triangle;whiteSpace=wrap;html=1;rotation=-90;" parent="1" vertex="1">
          <mxGeometry x="2950" y="2072.5" width="60" height="80" as="geometry" />
        </mxCell>
        <mxCell id="fGc8xeFr4oaS0azgFrXS-160" style="edgeStyle=orthogonalEdgeStyle;rounded=0;orthogonalLoop=1;jettySize=auto;html=1;endArrow=none;startFill=0;exitX=1;exitY=0.5;exitDx=0;exitDy=0;entryX=0.5;entryY=1;entryDx=0;entryDy=0;" parent="1" source="fGc8xeFr4oaS0azgFrXS-159" target="fGc8xeFr4oaS0azgFrXS-158" edge="1">
          <mxGeometry relative="1" as="geometry">
            <mxPoint x="2930" y="2070" as="sourcePoint" />
            <mxPoint x="3280" y="2027.5" as="targetPoint" />
          </mxGeometry>
        </mxCell>
        <mxCell id="fGc8xeFr4oaS0azgFrXS-162" value="Candidato" style="rounded=0;whiteSpace=wrap;html=1;" parent="1" vertex="1">
          <mxGeometry x="5271" y="2077.5" width="120" height="60" as="geometry" />
        </mxCell>
        <mxCell id="fGc8xeFr4oaS0azgFrXS-163" style="edgeStyle=orthogonalEdgeStyle;rounded=0;orthogonalLoop=1;jettySize=auto;html=1;endArrow=none;startFill=0;" parent="1" source="fGc8xeFr4oaS0azgFrXS-164" target="fGc8xeFr4oaS0azgFrXS-162" edge="1">
          <mxGeometry relative="1" as="geometry" />
        </mxCell>
        <mxCell id="fGc8xeFr4oaS0azgFrXS-164" value="apoya" style="rhombus;whiteSpace=wrap;html=1;" parent="1" vertex="1">
          <mxGeometry x="5291" y="1892.5" width="80" height="80" as="geometry" />
        </mxCell>
        <mxCell id="fGc8xeFr4oaS0azgFrXS-165" value="N" style="text;html=1;align=center;verticalAlign=middle;whiteSpace=wrap;rounded=0;" parent="1" vertex="1">
          <mxGeometry x="5332" y="1862.5" width="30" height="30" as="geometry" />
        </mxCell>
        <mxCell id="fGc8xeFr4oaS0azgFrXS-166" value="1" style="text;html=1;align=center;verticalAlign=middle;whiteSpace=wrap;rounded=0;" parent="1" vertex="1">
          <mxGeometry x="5332" y="1962.5" width="30" height="30" as="geometry" />
        </mxCell>
        <mxCell id="fGc8xeFr4oaS0azgFrXS-171" style="edgeStyle=orthogonalEdgeStyle;rounded=0;orthogonalLoop=1;jettySize=auto;html=1;entryX=0;entryY=0.5;entryDx=0;entryDy=0;exitX=1;exitY=0.5;exitDx=0;exitDy=0;endArrow=none;startFill=0;" parent="1" source="fGc8xeFr4oaS0azgFrXS-9" target="fGc8xeFr4oaS0azgFrXS-175" edge="1">
          <mxGeometry relative="1" as="geometry">
            <mxPoint x="3610.0000000000005" y="1649" as="sourcePoint" />
          </mxGeometry>
        </mxCell>
        <mxCell id="fGc8xeFr4oaS0azgFrXS-174" value="" style="edgeStyle=orthogonalEdgeStyle;rounded=0;orthogonalLoop=1;jettySize=auto;html=1;endArrow=none;startFill=0;entryX=0.25;entryY=0;entryDx=0;entryDy=0;" parent="1" source="fGc8xeFr4oaS0azgFrXS-175" target="fGc8xeFr4oaS0azgFrXS-4" edge="1">
          <mxGeometry relative="1" as="geometry" />
        </mxCell>
        <mxCell id="fGc8xeFr4oaS0azgFrXS-175" value="corresponde votar en" style="rhombus;whiteSpace=wrap;html=1;" parent="1" vertex="1">
          <mxGeometry x="3824" y="1609" width="80" height="80" as="geometry" />
        </mxCell>
        <mxCell id="fGc8xeFr4oaS0azgFrXS-178" value="1" style="text;html=1;align=center;verticalAlign=middle;whiteSpace=wrap;rounded=0;" parent="1" vertex="1">
          <mxGeometry x="3862" y="1679" width="30" height="30" as="geometry" />
        </mxCell>
        <mxCell id="fGc8xeFr4oaS0azgFrXS-179" value="N" style="text;html=1;align=center;verticalAlign=middle;whiteSpace=wrap;rounded=0;" parent="1" vertex="1">
          <mxGeometry x="3794" y="1620" width="30" height="30" as="geometry" />
        </mxCell>
        <mxCell id="fGc8xeFr4oaS0azgFrXS-186" style="rounded=0;orthogonalLoop=1;jettySize=auto;html=1;endArrow=none;startFill=0;" parent="1" source="fGc8xeFr4oaS0azgFrXS-184" target="fGc8xeFr4oaS0azgFrXS-18" edge="1">
          <mxGeometry relative="1" as="geometry" />
        </mxCell>
        <mxCell id="fGc8xeFr4oaS0azgFrXS-184" value="integra" style="rhombus;whiteSpace=wrap;html=1;" parent="1" vertex="1">
          <mxGeometry x="4161.5" y="2330" width="80" height="80" as="geometry" />
        </mxCell>
        <mxCell id="fGc8xeFr4oaS0azgFrXS-187" value="1" style="text;html=1;align=center;verticalAlign=middle;whiteSpace=wrap;rounded=0;" parent="1" vertex="1">
          <mxGeometry x="4241.5" y="2340" width="30" height="30" as="geometry" />
        </mxCell>
        <mxCell id="fGc8xeFr4oaS0azgFrXS-195" value="1" style="text;html=1;align=center;verticalAlign=middle;whiteSpace=wrap;rounded=0;" parent="1" vertex="1">
          <mxGeometry x="4726" y="2127.5" width="30" height="30" as="geometry" />
        </mxCell>
        <mxCell id="fGc8xeFr4oaS0azgFrXS-205" style="edgeStyle=orthogonalEdgeStyle;rounded=0;orthogonalLoop=1;jettySize=auto;html=1;entryX=0;entryY=0.5;entryDx=0;entryDy=0;endArrow=none;startFill=0;" parent="1" source="fGc8xeFr4oaS0azgFrXS-196" target="fGc8xeFr4oaS0azgFrXS-198" edge="1">
          <mxGeometry relative="1" as="geometry" />
        </mxCell>
        <mxCell id="fGc8xeFr4oaS0azgFrXS-242" style="edgeStyle=orthogonalEdgeStyle;rounded=0;orthogonalLoop=1;jettySize=auto;html=1;endArrow=none;startFill=0;entryX=0.5;entryY=0;entryDx=0;entryDy=0;" parent="1" source="fGc8xeFr4oaS0azgFrXS-196" target="fGc8xeFr4oaS0azgFrXS-241" edge="1">
          <mxGeometry relative="1" as="geometry">
            <Array as="points">
              <mxPoint x="4240" y="1803" />
            </Array>
          </mxGeometry>
        </mxCell>
        <mxCell id="olvuOu_hH_lNJqrxn-xl-2" style="rounded=0;orthogonalLoop=1;jettySize=auto;html=1;entryX=0.5;entryY=1;entryDx=0;entryDy=0;endArrow=none;startFill=0;" parent="1" source="fGc8xeFr4oaS0azgFrXS-196" target="olvuOu_hH_lNJqrxn-xl-3" edge="1">
          <mxGeometry relative="1" as="geometry" />
        </mxCell>
        <mxCell id="fGc8xeFr4oaS0azgFrXS-196" value="Voto" style="rounded=0;whiteSpace=wrap;html=1;" parent="1" vertex="1">
          <mxGeometry x="4189.5" y="1445" width="120" height="60" as="geometry" />
        </mxCell>
        <mxCell id="fGc8xeFr4oaS0azgFrXS-200" style="edgeStyle=orthogonalEdgeStyle;rounded=0;orthogonalLoop=1;jettySize=auto;html=1;endArrow=none;startFill=0;" parent="1" source="fGc8xeFr4oaS0azgFrXS-198" target="fGc8xeFr4oaS0azgFrXS-118" edge="1">
          <mxGeometry relative="1" as="geometry" />
        </mxCell>
        <mxCell id="fGc8xeFr4oaS0azgFrXS-198" value="asociada" style="rhombus;whiteSpace=wrap;html=1;" parent="1" vertex="1">
          <mxGeometry x="4300" y="1647.5" width="80" height="80" as="geometry" />
        </mxCell>
        <mxCell id="fGc8xeFr4oaS0azgFrXS-201" value="N" style="text;html=1;align=center;verticalAlign=middle;whiteSpace=wrap;rounded=0;" parent="1" vertex="1">
          <mxGeometry x="4380" y="1657.5" width="30" height="30" as="geometry" />
        </mxCell>
        <mxCell id="fGc8xeFr4oaS0azgFrXS-202" value="N" style="text;html=1;align=center;verticalAlign=middle;whiteSpace=wrap;rounded=0;" parent="1" vertex="1">
          <mxGeometry x="4274" y="1657.5" width="30" height="30" as="geometry" />
        </mxCell>
        <mxCell id="fGc8xeFr4oaS0azgFrXS-212" style="edgeStyle=orthogonalEdgeStyle;rounded=0;orthogonalLoop=1;jettySize=auto;html=1;endArrow=none;startFill=0;exitX=1;exitY=0.5;exitDx=0;exitDy=0;entryX=1;entryY=0.5;entryDx=0;entryDy=0;" parent="1" source="fGc8xeFr4oaS0azgFrXS-196" target="fGc8xeFr4oaS0azgFrXS-219" edge="1">
          <mxGeometry relative="1" as="geometry">
            <mxPoint x="4460" y="1475" as="sourcePoint" />
            <mxPoint x="4370" y="1475" as="targetPoint" />
          </mxGeometry>
        </mxCell>
        <mxCell id="fGc8xeFr4oaS0azgFrXS-226" style="edgeStyle=orthogonalEdgeStyle;rounded=0;orthogonalLoop=1;jettySize=auto;html=1;endArrow=none;startFill=0;" parent="1" source="fGc8xeFr4oaS0azgFrXS-219" target="fGc8xeFr4oaS0azgFrXS-223" edge="1">
          <mxGeometry relative="1" as="geometry" />
        </mxCell>
        <mxCell id="VfGMEPFWDm1vpek52N1y-9" style="edgeStyle=orthogonalEdgeStyle;rounded=0;orthogonalLoop=1;jettySize=auto;html=1;entryX=0;entryY=0.5;entryDx=0;entryDy=0;endArrow=none;startFill=0;" parent="1" source="fGc8xeFr4oaS0azgFrXS-219" target="fGc8xeFr4oaS0azgFrXS-231" edge="1">
          <mxGeometry relative="1" as="geometry">
            <Array as="points">
              <mxPoint x="4410" y="1475" />
              <mxPoint x="4410" y="1405" />
            </Array>
          </mxGeometry>
        </mxCell>
        <mxCell id="VfGMEPFWDm1vpek52N1y-10" style="edgeStyle=orthogonalEdgeStyle;rounded=0;orthogonalLoop=1;jettySize=auto;html=1;entryX=0;entryY=0.5;entryDx=0;entryDy=0;endArrow=none;startFill=0;" parent="1" source="fGc8xeFr4oaS0azgFrXS-219" target="fGc8xeFr4oaS0azgFrXS-227" edge="1">
          <mxGeometry relative="1" as="geometry">
            <Array as="points">
              <mxPoint x="4410" y="1475" />
              <mxPoint x="4410" y="1545" />
            </Array>
          </mxGeometry>
        </mxCell>
        <mxCell id="fGc8xeFr4oaS0azgFrXS-219" value="" style="triangle;whiteSpace=wrap;html=1;rotation=-180;flipH=0;flipV=0;" parent="1" vertex="1">
          <mxGeometry x="4330" y="1435" width="60" height="80" as="geometry" />
        </mxCell>
        <mxCell id="fGc8xeFr4oaS0azgFrXS-223" value="anulado" style="rounded=0;whiteSpace=wrap;html=1;" parent="1" vertex="1">
          <mxGeometry x="4429" y="1445" width="120" height="60" as="geometry" />
        </mxCell>
        <mxCell id="fGc8xeFr4oaS0azgFrXS-227" value="blanco" style="rounded=0;whiteSpace=wrap;html=1;" parent="1" vertex="1">
          <mxGeometry x="4429" y="1515" width="120" height="60" as="geometry" />
        </mxCell>
        <mxCell id="fGc8xeFr4oaS0azgFrXS-230" style="rounded=0;orthogonalLoop=1;jettySize=auto;html=1;endArrow=none;startFill=0;exitX=0.5;exitY=1;exitDx=0;exitDy=0;exitPerimeter=0;" parent="1" source="fGc8xeFr4oaS0azgFrXS-229" target="fGc8xeFr4oaS0azgFrXS-196" edge="1">
          <mxGeometry relative="1" as="geometry" />
        </mxCell>
        <mxCell id="fGc8xeFr4oaS0azgFrXS-229" value="id" style="text;html=1;align=center;verticalAlign=middle;whiteSpace=wrap;rounded=0;fontStyle=4" parent="1" vertex="1">
          <mxGeometry x="4213" y="1400" width="70" height="30" as="geometry" />
        </mxCell>
        <mxCell id="VfGMEPFWDm1vpek52N1y-12" style="rounded=0;orthogonalLoop=1;jettySize=auto;html=1;entryX=0;entryY=0.5;entryDx=0;entryDy=0;endArrow=none;startFill=0;exitX=1;exitY=0.5;exitDx=0;exitDy=0;" parent="1" source="VfGMEPFWDm1vpek52N1y-15" target="VfGMEPFWDm1vpek52N1y-11" edge="1">
          <mxGeometry relative="1" as="geometry" />
        </mxCell>
        <mxCell id="fGc8xeFr4oaS0azgFrXS-231" value="observado" style="rounded=0;whiteSpace=wrap;html=1;" parent="1" vertex="1">
          <mxGeometry x="4429" y="1375" width="120" height="60" as="geometry" />
        </mxCell>
        <mxCell id="fGc8xeFr4oaS0azgFrXS-234" style="edgeStyle=orthogonalEdgeStyle;rounded=0;orthogonalLoop=1;jettySize=auto;html=1;endArrow=none;startFill=0;entryX=0.5;entryY=0;entryDx=0;entryDy=0;" parent="1" source="fGc8xeFr4oaS0azgFrXS-233" target="fGc8xeFr4oaS0azgFrXS-9" edge="1">
          <mxGeometry relative="1" as="geometry">
            <mxPoint x="3545.0000000000005" y="1614" as="targetPoint" />
          </mxGeometry>
        </mxCell>
        <mxCell id="fGc8xeFr4oaS0azgFrXS-272" style="edgeStyle=orthogonalEdgeStyle;rounded=0;orthogonalLoop=1;jettySize=auto;html=1;endArrow=none;startFill=0;jumpStyle=arc;jumpSize=14;" parent="1" source="fGc8xeFr4oaS0azgFrXS-233" edge="1">
          <mxGeometry relative="1" as="geometry">
            <mxPoint x="3830" y="2370" as="targetPoint" />
            <Array as="points">
              <mxPoint x="3760" y="1527" />
              <mxPoint x="3760" y="2370" />
            </Array>
          </mxGeometry>
        </mxCell>
        <mxCell id="olvuOu_hH_lNJqrxn-xl-5" style="rounded=0;orthogonalLoop=1;jettySize=auto;html=1;entryX=0;entryY=0.5;entryDx=0;entryDy=0;endArrow=none;startFill=0;" parent="1" source="fGc8xeFr4oaS0azgFrXS-233" target="olvuOu_hH_lNJqrxn-xl-4" edge="1">
          <mxGeometry relative="1" as="geometry" />
        </mxCell>
        <mxCell id="fGc8xeFr4oaS0azgFrXS-233" value="vota" style="rhombus;whiteSpace=wrap;html=1;" parent="1" vertex="1">
          <mxGeometry x="3407" y="1487.5" width="80" height="80" as="geometry" />
        </mxCell>
        <mxCell id="fGc8xeFr4oaS0azgFrXS-240" style="rounded=0;orthogonalLoop=1;jettySize=auto;html=1;endArrow=none;startFill=0;" parent="1" source="fGc8xeFr4oaS0azgFrXS-239" target="fGc8xeFr4oaS0azgFrXS-233" edge="1">
          <mxGeometry relative="1" as="geometry" />
        </mxCell>
        <mxCell id="fGc8xeFr4oaS0azgFrXS-239" value="fecha_hora" style="text;html=1;align=center;verticalAlign=middle;whiteSpace=wrap;rounded=0;fontStyle=0" parent="1" vertex="1">
          <mxGeometry x="3428" y="1435" width="108" height="30" as="geometry" />
        </mxCell>
        <mxCell id="fGc8xeFr4oaS0azgFrXS-243" style="edgeStyle=orthogonalEdgeStyle;rounded=0;orthogonalLoop=1;jettySize=auto;html=1;endArrow=none;startFill=0;entryX=1.005;entryY=0.478;entryDx=0;entryDy=0;entryPerimeter=0;exitX=0.5;exitY=1;exitDx=0;exitDy=0;" parent="1" source="fGc8xeFr4oaS0azgFrXS-241" target="fGc8xeFr4oaS0azgFrXS-4" edge="1">
          <mxGeometry relative="1" as="geometry">
            <mxPoint x="4240" y="1737.25" as="sourcePoint" />
            <mxPoint x="4020" y="2060" as="targetPoint" />
            <Array as="points">
              <mxPoint x="4240" y="2068" />
              <mxPoint x="3962" y="2068" />
            </Array>
          </mxGeometry>
        </mxCell>
        <mxCell id="fGc8xeFr4oaS0azgFrXS-241" value="pertenece" style="rhombus;whiteSpace=wrap;html=1;" parent="1" vertex="1">
          <mxGeometry x="4200" y="1812.5" width="80" height="80" as="geometry" />
        </mxCell>
        <mxCell id="fGc8xeFr4oaS0azgFrXS-244" value="N" style="text;html=1;align=center;verticalAlign=middle;whiteSpace=wrap;rounded=0;" parent="1" vertex="1">
          <mxGeometry x="4244" y="1782.5" width="30" height="30" as="geometry" />
        </mxCell>
        <mxCell id="fGc8xeFr4oaS0azgFrXS-245" value="1" style="text;html=1;align=center;verticalAlign=middle;whiteSpace=wrap;rounded=0;" parent="1" vertex="1">
          <mxGeometry x="4244" y="1892.5" width="30" height="30" as="geometry" />
        </mxCell>
        <mxCell id="fGc8xeFr4oaS0azgFrXS-246" style="rounded=0;orthogonalLoop=1;jettySize=auto;html=1;entryX=0;entryY=0.5;entryDx=0;entryDy=0;endArrow=none;startFill=0;" parent="1" source="fGc8xeFr4oaS0azgFrXS-248" target="fGc8xeFr4oaS0azgFrXS-249" edge="1">
          <mxGeometry relative="1" as="geometry" />
        </mxCell>
        <mxCell id="fGc8xeFr4oaS0azgFrXS-247" style="edgeStyle=orthogonalEdgeStyle;rounded=0;orthogonalLoop=1;jettySize=auto;html=1;entryX=1;entryY=0.5;entryDx=0;entryDy=0;endArrow=none;startFill=0;" parent="1" source="fGc8xeFr4oaS0azgFrXS-248" target="fGc8xeFr4oaS0azgFrXS-253" edge="1">
          <mxGeometry relative="1" as="geometry" />
        </mxCell>
        <mxCell id="fGc8xeFr4oaS0azgFrXS-248" value="EstadoCircuito" style="rounded=0;whiteSpace=wrap;html=1;" parent="1" vertex="1">
          <mxGeometry x="4135" y="2190" width="120" height="60" as="geometry" />
        </mxCell>
        <mxCell id="fGc8xeFr4oaS0azgFrXS-249" value="descripciÃ³n" style="text;html=1;align=right;verticalAlign=middle;whiteSpace=wrap;rounded=0;fontStyle=0" parent="1" vertex="1">
          <mxGeometry x="4200" y="2137.5" width="70" height="30" as="geometry" />
        </mxCell>
        <mxCell id="fGc8xeFr4oaS0azgFrXS-259" style="edgeStyle=orthogonalEdgeStyle;rounded=0;orthogonalLoop=1;jettySize=auto;html=1;endArrow=none;startFill=0;" parent="1" source="fGc8xeFr4oaS0azgFrXS-253" target="fGc8xeFr4oaS0azgFrXS-255" edge="1">
          <mxGeometry relative="1" as="geometry" />
        </mxCell>
        <mxCell id="fGc8xeFr4oaS0azgFrXS-260" style="edgeStyle=orthogonalEdgeStyle;rounded=0;orthogonalLoop=1;jettySize=auto;html=1;entryX=0;entryY=0.5;entryDx=0;entryDy=0;endArrow=none;startFill=0;" parent="1" source="fGc8xeFr4oaS0azgFrXS-253" target="fGc8xeFr4oaS0azgFrXS-258" edge="1">
          <mxGeometry relative="1" as="geometry" />
        </mxCell>
        <mxCell id="fGc8xeFr4oaS0azgFrXS-253" value="" style="triangle;whiteSpace=wrap;html=1;rotation=-180;flipH=0;flipV=0;" parent="1" vertex="1">
          <mxGeometry x="4283" y="2180" width="60" height="80" as="geometry" />
        </mxCell>
        <mxCell id="fGc8xeFr4oaS0azgFrXS-276" style="edgeStyle=orthogonalEdgeStyle;rounded=0;orthogonalLoop=1;jettySize=auto;html=1;endArrow=none;startFill=0;" parent="1" source="fGc8xeFr4oaS0azgFrXS-254" target="fGc8xeFr4oaS0azgFrXS-253" edge="1">
          <mxGeometry relative="1" as="geometry" />
        </mxCell>
        <mxCell id="fGc8xeFr4oaS0azgFrXS-254" value="Contado" style="rounded=0;whiteSpace=wrap;html=1;" parent="1" vertex="1">
          <mxGeometry x="4400" y="2240" width="120" height="60" as="geometry" />
        </mxCell>
        <mxCell id="fGc8xeFr4oaS0azgFrXS-255" value="Cerrado" style="rounded=0;whiteSpace=wrap;html=1;" parent="1" vertex="1">
          <mxGeometry x="4400" y="2175" width="120" height="60" as="geometry" />
        </mxCell>
        <mxCell id="fGc8xeFr4oaS0azgFrXS-258" value="Abierto" style="rounded=0;whiteSpace=wrap;html=1;" parent="1" vertex="1">
          <mxGeometry x="4400" y="2107.5" width="120" height="60" as="geometry" />
        </mxCell>
        <mxCell id="fGc8xeFr4oaS0azgFrXS-264" style="edgeStyle=orthogonalEdgeStyle;rounded=0;orthogonalLoop=1;jettySize=auto;html=1;entryX=0;entryY=0.5;entryDx=0;entryDy=0;endArrow=none;startFill=0;" parent="1" source="fGc8xeFr4oaS0azgFrXS-262" target="fGc8xeFr4oaS0azgFrXS-248" edge="1">
          <mxGeometry relative="1" as="geometry" />
        </mxCell>
        <mxCell id="fGc8xeFr4oaS0azgFrXS-262" value="pasa por" style="rhombus;whiteSpace=wrap;html=1;" parent="1" vertex="1">
          <mxGeometry x="4020" y="2180" width="80" height="80" as="geometry" />
        </mxCell>
        <mxCell id="fGc8xeFr4oaS0azgFrXS-266" style="rounded=0;orthogonalLoop=1;jettySize=auto;html=1;entryX=0.5;entryY=0;entryDx=0;entryDy=0;endArrow=none;startFill=0;" parent="1" source="fGc8xeFr4oaS0azgFrXS-265" target="fGc8xeFr4oaS0azgFrXS-262" edge="1">
          <mxGeometry relative="1" as="geometry" />
        </mxCell>
        <mxCell id="fGc8xeFr4oaS0azgFrXS-265" value="fecha y hora" style="text;html=1;align=right;verticalAlign=middle;whiteSpace=wrap;rounded=0;fontStyle=4" parent="1" vertex="1">
          <mxGeometry x="4025" y="2095" width="70" height="30" as="geometry" />
        </mxCell>
        <mxCell id="fGc8xeFr4oaS0azgFrXS-273" value="N" style="text;html=1;align=center;verticalAlign=middle;whiteSpace=wrap;rounded=0;" parent="1" vertex="1">
          <mxGeometry x="3388" y="1500" width="30" height="30" as="geometry" />
        </mxCell>
        <mxCell id="fGc8xeFr4oaS0azgFrXS-274" value="N" style="text;html=1;align=center;verticalAlign=middle;whiteSpace=wrap;rounded=0;" parent="1" vertex="1">
          <mxGeometry x="3487" y="1497.5" width="30" height="32.5" as="geometry" />
        </mxCell>
        <mxCell id="fGc8xeFr4oaS0azgFrXS-275" style="edgeStyle=orthogonalEdgeStyle;rounded=0;orthogonalLoop=1;jettySize=auto;html=1;endArrow=none;startFill=0;" parent="1" source="fGc8xeFr4oaS0azgFrXS-109" edge="1">
          <mxGeometry relative="1" as="geometry">
            <mxPoint x="4873" y="2361" as="targetPoint" />
          </mxGeometry>
        </mxCell>
        <mxCell id="fGc8xeFr4oaS0azgFrXS-277" value="N" style="text;html=1;align=center;verticalAlign=middle;whiteSpace=wrap;rounded=0;" parent="1" vertex="1">
          <mxGeometry x="3990" y="2187.5" width="30" height="30" as="geometry" />
        </mxCell>
        <mxCell id="fGc8xeFr4oaS0azgFrXS-279" value="N" style="text;html=1;align=center;verticalAlign=middle;whiteSpace=wrap;rounded=0;" parent="1" vertex="1">
          <mxGeometry x="4101.5" y="2190" width="30" height="30" as="geometry" />
        </mxCell>
        <mxCell id="fGc8xeFr4oaS0azgFrXS-293" style="rounded=0;orthogonalLoop=1;jettySize=auto;html=1;entryX=0.5;entryY=0;entryDx=0;entryDy=0;endArrow=none;startFill=0;" parent="1" source="fGc8xeFr4oaS0azgFrXS-281" target="fGc8xeFr4oaS0azgFrXS-289" edge="1">
          <mxGeometry relative="1" as="geometry" />
        </mxCell>
        <mxCell id="fGc8xeFr4oaS0azgFrXS-294" style="rounded=0;orthogonalLoop=1;jettySize=auto;html=1;endArrow=none;startFill=0;" parent="1" source="fGc8xeFr4oaS0azgFrXS-281" target="fGc8xeFr4oaS0azgFrXS-290" edge="1">
          <mxGeometry relative="1" as="geometry" />
        </mxCell>
        <mxCell id="fGc8xeFr4oaS0azgFrXS-297" style="edgeStyle=orthogonalEdgeStyle;rounded=0;orthogonalLoop=1;jettySize=auto;html=1;entryX=0;entryY=0.5;entryDx=0;entryDy=0;endArrow=none;startFill=0;" parent="1" source="fGc8xeFr4oaS0azgFrXS-281" target="fGc8xeFr4oaS0azgFrXS-296" edge="1">
          <mxGeometry relative="1" as="geometry" />
        </mxCell>
        <mxCell id="fGc8xeFr4oaS0azgFrXS-281" value="Departamento" style="rounded=0;whiteSpace=wrap;html=1;" parent="1" vertex="1">
          <mxGeometry x="4093" y="2660" width="120" height="60" as="geometry" />
        </mxCell>
        <mxCell id="fGc8xeFr4oaS0azgFrXS-285" style="edgeStyle=orthogonalEdgeStyle;rounded=0;orthogonalLoop=1;jettySize=auto;html=1;entryX=0;entryY=0.5;entryDx=0;entryDy=0;endArrow=none;startFill=0;" parent="1" source="fGc8xeFr4oaS0azgFrXS-283" target="fGc8xeFr4oaS0azgFrXS-281" edge="1">
          <mxGeometry relative="1" as="geometry" />
        </mxCell>
        <mxCell id="fGc8xeFr4oaS0azgFrXS-283" value="tiene" style="rhombus;whiteSpace=wrap;html=1;" parent="1" vertex="1">
          <mxGeometry x="3434" y="2650" width="80" height="80" as="geometry" />
        </mxCell>
        <mxCell id="fGc8xeFr4oaS0azgFrXS-286" value="N" style="text;html=1;align=center;verticalAlign=middle;whiteSpace=wrap;rounded=0;" parent="1" vertex="1">
          <mxGeometry x="3480" y="2625" width="20" height="25" as="geometry" />
        </mxCell>
        <mxCell id="fGc8xeFr4oaS0azgFrXS-287" value="1" style="text;html=1;align=center;verticalAlign=middle;whiteSpace=wrap;rounded=0;" parent="1" vertex="1">
          <mxGeometry x="3514" y="2660" width="20" height="25" as="geometry" />
        </mxCell>
        <mxCell id="fGc8xeFr4oaS0azgFrXS-289" value="id" style="text;html=1;align=center;verticalAlign=middle;whiteSpace=wrap;rounded=0;fontStyle=4" parent="1" vertex="1">
          <mxGeometry x="4133.5" y="2740" width="39" height="30" as="geometry" />
        </mxCell>
        <mxCell id="fGc8xeFr4oaS0azgFrXS-290" value="nombre" style="text;html=1;align=center;verticalAlign=middle;whiteSpace=wrap;rounded=0;fontStyle=0" parent="1" vertex="1">
          <mxGeometry x="4133.5" y="2600" width="39" height="30" as="geometry" />
        </mxCell>
        <mxCell id="fGc8xeFr4oaS0azgFrXS-296" value="tiene" style="rhombus;whiteSpace=wrap;html=1;" parent="1" vertex="1">
          <mxGeometry x="5097" y="2650" width="80" height="80" as="geometry" />
        </mxCell>
        <mxCell id="fGc8xeFr4oaS0azgFrXS-300" value="N" style="text;html=1;align=center;verticalAlign=middle;whiteSpace=wrap;rounded=0;" parent="1" vertex="1">
          <mxGeometry x="5139" y="2625" width="20" height="25" as="geometry" />
        </mxCell>
        <mxCell id="fGc8xeFr4oaS0azgFrXS-301" value="1" style="text;html=1;align=center;verticalAlign=middle;whiteSpace=wrap;rounded=0;" parent="1" vertex="1">
          <mxGeometry x="5077" y="2660" width="20" height="25" as="geometry" />
        </mxCell>
        <mxCell id="fGc8xeFr4oaS0azgFrXS-310" value="N" style="text;html=1;align=center;verticalAlign=middle;whiteSpace=wrap;rounded=0;" parent="1" vertex="1">
          <mxGeometry x="5040" y="1982.5" width="30" height="30" as="geometry" />
        </mxCell>
        <mxCell id="fGc8xeFr4oaS0azgFrXS-311" value="N" style="text;html=1;align=center;verticalAlign=middle;whiteSpace=wrap;rounded=0;" parent="1" vertex="1">
          <mxGeometry x="5040" y="1877.5" width="30" height="30" as="geometry" />
        </mxCell>
        <mxCell id="-aTBkdRAjHbu4pJM6rxs-5" value="" style="edgeStyle=orthogonalEdgeStyle;rounded=0;orthogonalLoop=1;jettySize=auto;html=1;endArrow=none;startFill=0;entryX=0.25;entryY=0;entryDx=0;entryDy=0;exitX=1;exitY=0.5;exitDx=0;exitDy=0;endFill=1;jumpStyle=arc;jumpSize=14;" parent="1" source="fGc8xeFr4oaS0azgFrXS-175" target="fGc8xeFr4oaS0azgFrXS-18" edge="1">
          <mxGeometry relative="1" as="geometry">
            <mxPoint x="3860" y="1760" as="sourcePoint" />
            <mxPoint x="3860" y="2106" as="targetPoint" />
            <Array as="points">
              <mxPoint x="4060" y="1649" />
              <mxPoint x="4060" y="1930" />
              <mxPoint x="4660" y="1930" />
              <mxPoint x="4660" y="2340" />
            </Array>
            <mxPoint as="offset" />
          </mxGeometry>
        </mxCell>
        <mxCell id="-aTBkdRAjHbu4pJM6rxs-7" value="N" style="text;html=1;align=center;verticalAlign=middle;whiteSpace=wrap;rounded=0;" parent="1" vertex="1">
          <mxGeometry x="3898" y="1620" width="30" height="30" as="geometry" />
        </mxCell>
        <mxCell id="-aTBkdRAjHbu4pJM6rxs-8" value="N" style="text;html=1;align=center;verticalAlign=middle;whiteSpace=wrap;rounded=0;" parent="1" vertex="1">
          <mxGeometry x="4663" y="2305" width="30" height="30" as="geometry" />
        </mxCell>
        <mxCell id="olvuOu_hH_lNJqrxn-xl-1" value="estado actual" style="text;html=1;align=center;verticalAlign=middle;whiteSpace=wrap;rounded=0;fontStyle=0" parent="1" vertex="1">
          <mxGeometry x="4274" y="1370" width="70" height="30" as="geometry" />
        </mxCell>
        <mxCell id="olvuOu_hH_lNJqrxn-xl-4" value="id_generado" style="text;html=1;align=center;verticalAlign=middle;whiteSpace=wrap;rounded=0;fontStyle=4" parent="1" vertex="1">
          <mxGeometry x="3527" y="1465" width="108" height="30" as="geometry" />
        </mxCell>
        <mxCell id="olvuOu_hH_lNJqrxn-xl-6" value="" style="ellipse;whiteSpace=wrap;html=1;dashed=1;" parent="1" vertex="1">
          <mxGeometry x="3967.5" y="2460" width="75" height="50" as="geometry" />
        </mxCell>
        <mxCell id="olvuOu_hH_lNJqrxn-xl-7" value="estado actual" style="text;html=1;align=center;verticalAlign=middle;whiteSpace=wrap;rounded=0;fontStyle=0" parent="1" vertex="1">
          <mxGeometry x="3970" y="2470" width="70" height="30" as="geometry" />
        </mxCell>
        <mxCell id="5WSkeiZae-1Y6LiHX-dT-8" style="rounded=0;orthogonalLoop=1;jettySize=auto;html=1;entryX=0;entryY=0.5;entryDx=0;entryDy=0;endArrow=none;startFill=0;" parent="1" source="VfGMEPFWDm1vpek52N1y-1" target="5WSkeiZae-1Y6LiHX-dT-1" edge="1">
          <mxGeometry relative="1" as="geometry" />
        </mxCell>
        <mxCell id="VfGMEPFWDm1vpek52N1y-1" value="contraseÃ±a" style="text;html=1;align=center;verticalAlign=middle;whiteSpace=wrap;rounded=0;fontStyle=0" parent="1" vertex="1">
          <mxGeometry x="2830" y="1830" width="90" height="30" as="geometry" />
        </mxCell>
        <mxCell id="VfGMEPFWDm1vpek52N1y-8" style="rounded=0;orthogonalLoop=1;jettySize=auto;html=1;entryX=0.25;entryY=0;entryDx=0;entryDy=0;endArrow=none;startFill=0;exitX=1;exitY=0.5;exitDx=0;exitDy=0;" parent="1" source="VfGMEPFWDm1vpek52N1y-7" target="fGc8xeFr4oaS0azgFrXS-196" edge="1">
          <mxGeometry relative="1" as="geometry" />
        </mxCell>
        <mxCell id="VfGMEPFWDm1vpek52N1y-7" value="hora_emision" style="text;html=1;align=center;verticalAlign=middle;whiteSpace=wrap;rounded=0;fontStyle=0" parent="1" vertex="1">
          <mxGeometry x="4100" y="1390" width="80" height="30" as="geometry" />
        </mxCell>
        <mxCell id="VfGMEPFWDm1vpek52N1y-11" value="hora_aprobado" style="text;html=1;align=center;verticalAlign=middle;whiteSpace=wrap;rounded=0;fontStyle=0" parent="1" vertex="1">
          <mxGeometry x="4720" y="1390" width="93" height="30" as="geometry" />
        </mxCell>
        <mxCell id="VfGMEPFWDm1vpek52N1y-14" style="edgeStyle=orthogonalEdgeStyle;rounded=0;orthogonalLoop=1;jettySize=auto;html=1;entryX=0.5;entryY=0;entryDx=0;entryDy=0;jumpStyle=arc;jumpSize=14;endArrow=none;startFill=0;" parent="1" source="fGc8xeFr4oaS0azgFrXS-12" target="VfGMEPFWDm1vpek52N1y-15" edge="1">
          <mxGeometry relative="1" as="geometry">
            <Array as="points">
              <mxPoint x="2820" y="1330" />
              <mxPoint x="4663" y="1330" />
            </Array>
          </mxGeometry>
        </mxCell>
        <mxCell id="VfGMEPFWDm1vpek52N1y-15" value="aprueba" style="rhombus;whiteSpace=wrap;html=1;" parent="1" vertex="1">
          <mxGeometry x="4623" y="1365" width="80" height="80" as="geometry" />
        </mxCell>
        <mxCell id="VfGMEPFWDm1vpek52N1y-16" style="edgeStyle=orthogonalEdgeStyle;rounded=0;orthogonalLoop=1;jettySize=auto;html=1;endArrow=none;startFill=0;entryX=1;entryY=0.5;entryDx=0;entryDy=0;" parent="1" source="VfGMEPFWDm1vpek52N1y-15" target="fGc8xeFr4oaS0azgFrXS-231" edge="1">
          <mxGeometry relative="1" as="geometry">
            <mxPoint x="4550" y="1406" as="targetPoint" />
          </mxGeometry>
        </mxCell>
        <mxCell id="VfGMEPFWDm1vpek52N1y-17" value="N" style="text;html=1;align=center;verticalAlign=middle;whiteSpace=wrap;rounded=0;" parent="1" vertex="1">
          <mxGeometry x="4593" y="1405" width="30" height="30" as="geometry" />
        </mxCell>
        <mxCell id="VfGMEPFWDm1vpek52N1y-18" value="1" style="text;html=1;align=center;verticalAlign=middle;whiteSpace=wrap;rounded=0;" parent="1" vertex="1">
          <mxGeometry x="4663" y="1335" width="30" height="30" as="geometry" />
        </mxCell>
        <mxCell id="VfGMEPFWDm1vpek52N1y-31" value="hash_integridad" style="text;html=1;align=right;verticalAlign=middle;whiteSpace=wrap;rounded=0;fontStyle=0" parent="1" vertex="1">
          <mxGeometry x="4060" y="1475" width="91.5" height="30" as="geometry" />
        </mxCell>
        <mxCell id="VfGMEPFWDm1vpek52N1y-33" style="rounded=0;orthogonalLoop=1;jettySize=auto;html=1;endArrow=none;endFill=1;startFill=0;entryX=0;entryY=0.5;entryDx=0;entryDy=0;exitX=1;exitY=0.5;exitDx=0;exitDy=0;" parent="1" source="VfGMEPFWDm1vpek52N1y-32" target="fGc8xeFr4oaS0azgFrXS-196" edge="1">
          <mxGeometry relative="1" as="geometry">
            <mxPoint x="4180" y="1480" as="targetPoint" />
          </mxGeometry>
        </mxCell>
        <mxCell id="VfGMEPFWDm1vpek52N1y-32" value="hora_contado" style="text;html=1;align=center;verticalAlign=middle;whiteSpace=wrap;rounded=0;fontStyle=0" parent="1" vertex="1">
          <mxGeometry x="4077.25" y="1437.5" width="78.5" height="27.5" as="geometry" />
        </mxCell>
        <mxCell id="VfGMEPFWDm1vpek52N1y-34" style="rounded=0;orthogonalLoop=1;jettySize=auto;html=1;entryX=0;entryY=0.75;entryDx=0;entryDy=0;endArrow=none;startFill=0;" parent="1" source="VfGMEPFWDm1vpek52N1y-31" target="fGc8xeFr4oaS0azgFrXS-196" edge="1">
          <mxGeometry relative="1" as="geometry" />
        </mxCell>
        <mxCell id="5WSkeiZae-1Y6LiHX-dT-1" value="UsuarioSistema" style="rounded=0;whiteSpace=wrap;html=1;" parent="1" vertex="1">
          <mxGeometry x="2920" y="1837.5" width="120" height="60" as="geometry" />
        </mxCell>
        <mxCell id="5WSkeiZae-1Y6LiHX-dT-3" value="" style="triangle;whiteSpace=wrap;html=1;rotation=-90;" parent="1" vertex="1">
          <mxGeometry x="2960" y="1902.5" width="40" height="53.33" as="geometry" />
        </mxCell>
        <mxCell id="5WSkeiZae-1Y6LiHX-dT-6" style="rounded=0;orthogonalLoop=1;jettySize=auto;html=1;entryX=0.932;entryY=0.508;entryDx=0;entryDy=0;entryPerimeter=0;endArrow=none;startFill=0;" parent="1" source="5WSkeiZae-1Y6LiHX-dT-1" target="5WSkeiZae-1Y6LiHX-dT-3" edge="1">
          <mxGeometry relative="1" as="geometry" />
        </mxCell>
        <mxCell id="5WSkeiZae-1Y6LiHX-dT-10" style="rounded=0;orthogonalLoop=1;jettySize=auto;html=1;entryX=0;entryY=0.25;entryDx=0;entryDy=0;endArrow=none;startFill=0;edgeStyle=orthogonalEdgeStyle;exitX=0.5;exitY=0;exitDx=0;exitDy=0;" parent="1" source="5WSkeiZae-1Y6LiHX-dT-9" target="5WSkeiZae-1Y6LiHX-dT-3" edge="1">
          <mxGeometry relative="1" as="geometry">
            <Array as="points">
              <mxPoint x="2850" y="1960" />
              <mxPoint x="2967" y="1960" />
            </Array>
          </mxGeometry>
        </mxCell>
        <mxCell id="5WSkeiZae-1Y6LiHX-dT-9" value="SuperAdmin" style="rounded=0;whiteSpace=wrap;html=1;" parent="1" vertex="1">
          <mxGeometry x="2790" y="1977.5" width="120" height="60" as="geometry" />
        </mxCell>
        <mxCell id="E5w8pSdRpZbYfZa8hqmL-2" style="rounded=0;orthogonalLoop=1;jettySize=auto;html=1;entryX=1;entryY=0.75;entryDx=0;entryDy=0;endArrow=none;startFill=0;" edge="1" parent="1" source="E5w8pSdRpZbYfZa8hqmL-1" target="fGc8xeFr4oaS0azgFrXS-191">
          <mxGeometry relative="1" as="geometry" />
        </mxCell>
        <mxCell id="E5w8pSdRpZbYfZa8hqmL-1" value="hash_integridad" style="text;html=1;align=right;verticalAlign=middle;whiteSpace=wrap;rounded=0;fontStyle=0" vertex="1" parent="1">
          <mxGeometry x="4112.5" y="2430" width="90" height="30" as="geometry" />
        </mxCell>
        <mxCell id="E5w8pSdRpZbYfZa8hqmL-3" style="edgeStyle=orthogonalEdgeStyle;rounded=0;orthogonalLoop=1;jettySize=auto;html=1;entryX=0.5;entryY=1;entryDx=0;entryDy=0;endArrow=none;startFill=0;jumpStyle=arc;jumpSize=14;" edge="1" parent="1" source="fGc8xeFr4oaS0azgFrXS-86" target="fGc8xeFr4oaS0azgFrXS-18">
          <mxGeometry relative="1" as="geometry">
            <Array as="points">
              <mxPoint x="3177" y="2940" />
              <mxPoint x="4723" y="2940" />
            </Array>
          </mxGeometry>
        </mxCell>
      </root>
    </mxGraphModel>
  </diagram>
</mxfile>
